<?xml version="1.0" encoding="UTF-8" ?>
<!DOCTYPE svg PUBLIC "-//W3C//DTD SVG 1.1//EN" "http://www.w3.org/Graphics/SVG/1.1/DTD/svg11.dtd">
<svg width="640pt" height="640pt" viewBox="0 0 640 640" version="1.1" xmlns="http://www.w3.org/2000/svg">
<g id="#ffffffff">
<path fill="#ffffff" opacity="1.00" d=" M 0.00 0.00 L 640.00 0.00 L 640.00 640.00 L 0.00 640.00 L 0.00 0.00 M 211.87 101.96 C 198.46 104.09 184.17 108.82 176.03 120.46 C 174.55 121.43 173.16 123.04 171.22 122.78 C 166.07 122.54 160.98 121.33 155.80 121.81 C 150.76 121.01 145.66 122.39 140.82 123.73 C 133.17 125.79 127.10 131.17 121.24 136.22 C 117.78 139.36 113.98 142.35 111.88 146.64 C 105.61 152.94 97.68 157.16 91.21 163.23 C 81.20 172.31 70.36 180.40 59.51 188.43 C 56.80 190.27 53.74 191.48 50.89 193.07 C 47.52 194.92 44.65 197.63 41.05 199.10 C 34.76 201.66 28.42 204.20 22.61 207.74 C 17.78 210.70 15.19 215.95 12.87 220.90 C 10.43 223.69 8.31 227.15 8.63 231.01 C 9.26 236.27 12.03 241.60 16.89 244.10 C 20.95 247.98 25.56 251.57 30.80 253.70 C 34.42 259.32 41.77 260.76 45.71 266.19 C 41.78 270.45 36.91 273.70 32.95 277.92 C 30.95 279.71 31.46 282.62 31.13 285.02 C 36.31 285.84 41.66 285.92 46.77 284.58 C 50.28 283.65 53.88 282.95 57.54 283.09 C 58.42 285.92 59.32 288.75 60.07 291.63 C 59.19 297.72 59.65 303.88 59.61 310.00 C 59.86 335.77 57.98 361.81 62.90 387.27 C 65.33 397.01 66.82 407.23 71.95 416.03 C 77.07 426.94 85.01 436.12 93.04 444.97 C 96.35 448.42 99.73 452.42 104.78 453.09 C 108.32 445.05 105.25 436.12 106.55 427.70 C 109.70 431.52 112.32 435.75 115.53 439.52 C 116.81 441.17 118.39 442.89 118.42 445.11 C 118.79 452.09 117.68 459.26 119.93 466.04 C 122.68 484.19 130.44 501.06 138.89 517.19 C 143.85 526.03 150.17 534.70 159.23 539.68 C 164.91 542.90 171.76 543.23 178.06 542.08 C 186.33 540.28 192.61 533.28 195.24 525.47 C 198.66 515.53 196.93 504.87 194.80 494.87 C 193.34 487.84 190.18 481.13 190.22 473.84 C 194.35 475.82 198.00 478.60 201.65 481.34 C 209.21 486.67 217.10 491.59 225.47 495.55 C 229.08 497.30 232.77 498.88 236.24 500.88 C 241.95 504.14 246.08 509.83 247.84 516.13 C 250.98 526.73 254.35 537.40 260.05 546.96 C 268.61 561.81 280.59 574.80 295.32 583.68 C 303.89 588.74 314.08 591.89 324.06 590.07 C 331.64 588.63 337.65 582.66 340.90 575.90 L 340.62 576.71 C 341.69 575.56 342.75 574.40 343.79 573.24 C 343.81 575.40 343.87 577.55 343.98 579.71 C 344.32 579.45 345.02 578.94 345.36 578.68 C 348.15 582.68 353.55 580.05 356.31 577.35 C 361.24 572.54 367.46 569.17 371.74 563.70 C 381.09 552.46 388.40 539.63 394.71 526.48 C 397.81 520.36 399.44 513.66 401.76 507.23 C 402.00 508.10 402.24 508.97 402.49 509.86 C 402.58 507.96 402.69 506.07 402.85 504.19 C 403.37 504.59 403.90 505.00 404.43 505.41 C 404.83 500.93 406.34 496.56 409.58 493.32 L 410.52 493.60 C 411.71 492.90 412.89 492.18 414.06 491.45 C 421.33 485.54 429.15 480.35 436.29 474.27 C 440.52 470.91 444.25 466.55 449.64 465.04 C 446.31 483.09 442.36 501.46 444.43 519.89 C 445.20 533.64 449.93 547.46 459.16 557.85 C 466.69 566.74 478.20 572.55 490.00 571.75 C 497.74 572.45 505.24 569.06 510.54 563.54 C 516.76 556.97 521.59 548.21 520.68 538.88 C 519.05 541.34 517.38 543.77 515.70 546.20 C 515.85 535.37 513.23 524.77 512.58 514.01 C 512.41 498.76 521.90 486.12 530.30 474.27 C 539.86 461.46 547.56 447.22 552.71 432.08 C 562.08 400.63 557.11 365.84 542.02 336.98 C 534.52 322.29 523.95 309.29 511.70 298.30 C 499.05 287.20 483.60 279.91 467.75 274.58 C 458.93 272.17 450.03 270.07 441.10 268.12 C 437.83 267.42 434.56 266.11 431.18 266.59 C 428.68 265.95 426.43 264.63 423.90 264.11 C 423.39 258.75 422.67 253.41 422.28 248.05 C 421.20 233.24 417.37 218.83 413.61 204.53 C 411.23 195.27 407.26 186.51 402.92 178.03 C 399.58 172.20 396.81 165.85 391.86 161.15 C 387.24 154.25 380.74 148.91 375.01 142.98 C 368.14 136.71 360.61 130.89 352.14 126.96 C 349.88 124.16 346.14 123.37 343.05 121.86 C 331.19 116.47 317.93 114.72 305.01 115.73 C 301.60 115.59 298.20 115.49 294.79 115.40 C 287.25 109.03 277.32 106.59 267.95 104.27 C 249.53 100.68 230.52 99.70 211.87 101.96 Z" />
<path fill="#ffffff" opacity="1.00" d=" M 425.14 269.89 C 432.59 271.46 439.77 274.05 447.20 275.71 C 460.10 278.52 472.84 282.41 484.73 288.20 C 491.44 291.32 497.49 295.63 504.02 299.08 C 522.86 313.61 536.59 334.17 544.60 356.45 C 551.42 374.40 552.81 393.95 551.12 412.95 C 549.24 429.16 542.86 444.56 534.52 458.48 C 530.12 465.63 524.76 472.12 520.22 479.18 C 514.46 487.93 508.57 497.25 507.64 507.96 C 506.71 519.89 508.48 531.90 511.66 543.39 C 512.57 546.91 513.43 550.98 511.22 554.23 C 505.32 564.80 491.53 569.00 480.28 565.50 C 466.64 561.60 457.15 549.14 453.08 536.04 C 447.32 516.51 448.69 495.49 453.62 475.94 C 454.63 470.73 456.21 465.41 455.46 460.07 C 454.99 457.11 451.46 456.81 449.22 457.82 C 444.89 459.59 441.46 462.89 437.97 465.90 C 429.55 471.48 421.80 477.98 413.95 484.31 C 413.39 483.92 412.27 483.13 411.72 482.74 C 412.39 479.81 413.06 476.88 413.85 473.98 C 420.81 460.99 421.69 446.03 423.52 431.72 C 427.88 407.60 425.98 383.01 424.79 358.70 C 425.60 346.49 426.45 334.26 426.37 322.01 C 426.16 304.63 425.28 287.27 425.14 269.89 Z" />
<path fill="#ffffff" opacity="1.00" d=" M 126.40 401.52 C 128.33 401.57 130.26 401.62 132.19 401.76 C 148.46 406.37 165.21 408.99 181.83 411.99 C 199.60 415.86 217.94 416.13 236.06 415.69 C 243.16 415.57 250.25 414.75 257.15 413.02 C 265.31 411.36 273.57 409.75 281.30 406.53 C 285.68 404.70 290.05 402.80 294.60 401.41 C 290.33 413.13 282.16 422.88 274.67 432.67 C 271.46 437.08 265.71 441.73 268.28 447.81 C 275.80 448.69 283.03 446.30 290.14 444.21 C 287.00 447.11 283.83 449.99 280.93 453.14 C 284.88 452.22 288.71 450.68 291.93 448.16 C 293.52 447.01 295.11 445.84 296.74 444.74 C 301.50 443.56 306.57 442.73 310.55 439.63 C 314.95 436.21 319.66 433.16 324.84 431.05 C 322.98 442.95 318.57 454.30 317.21 466.29 C 314.33 478.72 309.72 490.65 305.60 502.71 C 302.89 510.87 298.71 518.41 295.20 526.24 C 290.90 535.78 285.78 544.93 281.66 554.56 C 280.49 556.99 279.20 559.37 277.91 561.74 C 269.44 553.46 263.53 542.91 258.82 532.13 C 254.48 522.35 253.78 510.79 246.57 502.42 C 240.34 495.68 231.35 492.69 223.42 488.50 C 213.30 483.34 204.40 476.19 194.92 470.02 C 192.11 468.07 188.60 468.32 185.36 468.25 C 184.61 472.00 184.16 475.91 185.17 479.67 C 188.35 492.88 193.15 506.29 191.15 520.08 C 190.08 527.84 184.28 534.96 176.54 536.79 C 169.98 538.67 162.91 536.42 157.71 532.26 C 151.34 527.47 146.86 520.70 143.31 513.67 C 132.97 495.16 126.02 474.81 122.24 453.99 C 122.01 451.67 121.76 449.36 121.59 447.05 C 123.80 448.59 125.99 450.18 128.08 451.88 C 130.66 454.93 132.91 458.60 136.72 460.26 C 139.68 461.33 142.90 460.85 145.98 460.85 C 145.83 458.50 146.02 456.06 145.27 453.80 C 144.45 452.38 142.58 453.34 141.35 453.48 C 140.08 448.05 137.89 442.91 135.67 437.82 C 132.74 431.09 130.66 424.03 128.91 416.92 C 127.55 411.89 126.76 406.72 126.40 401.52 Z" />
</g>
<g id="#4e2e33ff">
<path fill="#4e2e33" opacity="1.00" d=" M 211.87 101.96 C 230.52 99.70 249.53 100.68 267.95 104.27 C 277.32 106.59 287.25 109.03 294.79 115.40 C 293.52 115.39 292.24 115.38 290.97 115.38 C 292.60 117.04 294.24 118.69 295.86 120.36 C 293.95 120.12 292.05 119.82 290.16 119.51 C 289.48 117.22 288.77 114.57 286.21 113.76 C 268.60 105.91 249.07 104.06 230.00 103.77 C 217.87 104.31 205.36 105.00 194.13 110.09 C 187.31 112.92 181.74 117.90 176.25 122.71 C 176.20 122.15 176.08 121.02 176.03 120.46 C 184.17 108.82 198.46 104.09 211.87 101.96 Z" />
</g>
<g id="#ad525bff">
<path fill="#ad525b" opacity="1.00" d=" M 194.13 110.09 C 205.36 105.00 217.87 104.31 230.00 103.77 C 249.07 104.06 268.60 105.91 286.21 113.76 C 288.77 114.57 289.48 117.22 290.16 119.51 C 292.05 119.82 293.95 120.12 295.86 120.36 C 297.94 120.48 300.13 120.76 302.16 120.09 C 303.39 118.84 304.14 117.23 305.01 115.73 C 317.93 114.72 331.19 116.47 343.05 121.86 C 346.14 123.37 349.88 124.16 352.14 126.96 C 355.76 132.38 361.82 135.18 366.59 139.39 C 375.34 146.96 383.63 155.12 390.85 164.18 C 393.10 167.06 394.97 170.21 396.56 173.50 C 402.21 189.09 410.71 203.59 415.10 219.66 C 416.30 225.51 416.35 231.52 417.37 237.41 C 418.65 245.07 418.89 252.84 419.37 260.58 C 419.78 267.78 422.12 274.74 422.12 281.98 C 422.13 293.46 421.68 304.93 421.69 316.41 C 421.22 323.60 420.67 330.79 420.71 338.00 C 420.80 348.88 418.77 359.61 417.71 370.41 C 417.24 370.14 416.77 369.87 416.30 369.61 C 416.10 373.92 415.73 378.23 415.09 382.51 C 413.51 385.40 412.04 388.43 411.71 391.76 C 410.62 401.57 408.70 411.47 410.26 421.34 C 410.22 430.86 410.65 440.40 409.86 449.90 C 409.39 456.06 406.86 461.79 405.76 467.83 C 404.11 478.17 401.85 488.67 397.00 498.03 C 394.89 499.97 392.96 502.23 392.23 505.07 C 390.10 512.55 386.51 519.47 383.48 526.60 C 380.51 533.04 377.53 539.55 373.46 545.39 C 369.41 551.26 364.73 556.66 360.23 562.17 C 357.86 565.11 354.87 567.44 351.72 569.47 C 351.94 566.02 352.22 562.58 352.91 559.20 C 355.60 552.00 358.85 544.33 357.41 536.51 C 356.78 534.27 354.21 535.42 352.62 535.68 C 347.44 537.23 346.03 543.10 342.74 546.76 C 338.15 552.01 332.97 556.72 327.92 561.53 C 325.92 560.15 323.90 558.80 321.92 557.40 C 321.22 557.89 320.51 558.38 319.81 558.87 C 321.95 550.76 325.32 543.03 327.42 534.91 C 327.92 535.01 328.43 535.11 328.94 535.22 C 328.72 531.60 328.45 527.98 328.02 524.38 C 327.97 523.88 327.87 522.89 327.82 522.40 C 323.71 524.58 320.26 527.74 317.40 531.39 C 311.29 538.88 303.84 545.08 297.10 551.97 C 293.63 553.81 289.87 554.98 286.08 555.98 C 286.16 550.40 289.14 545.65 292.30 541.30 C 295.67 536.50 297.75 530.98 299.56 525.45 C 302.03 517.93 306.09 511.08 308.60 503.59 C 311.24 495.83 313.58 487.96 316.54 480.31 C 319.72 472.47 321.36 464.14 323.93 456.11 C 327.88 438.48 332.39 420.94 334.95 403.04 C 335.26 401.50 335.53 399.97 335.87 398.45 C 350.89 374.94 366.16 350.57 371.71 322.80 C 375.90 299.77 375.18 275.89 369.92 253.09 C 368.85 249.10 368.81 244.05 364.93 241.61 C 363.87 247.93 367.26 253.79 368.14 259.93 C 371.74 280.73 372.88 302.33 368.08 323.05 C 363.60 346.73 350.74 367.50 339.30 388.32 C 337.85 388.44 336.41 388.55 334.97 388.67 C 333.92 391.40 332.83 394.10 331.86 396.86 C 327.50 399.94 323.30 403.57 321.74 408.89 C 318.08 416.35 312.26 422.40 307.48 429.13 C 303.06 432.17 297.86 433.70 293.14 436.19 C 289.94 437.80 286.82 439.72 283.28 440.49 C 280.90 441.01 278.58 439.95 276.32 439.36 C 280.26 431.87 287.42 426.91 291.77 419.73 C 293.81 416.52 296.26 413.60 298.50 410.53 C 301.83 405.98 302.82 400.01 306.98 396.01 C 310.32 392.76 313.58 389.37 315.86 385.26 C 315.53 384.07 315.20 382.89 314.94 381.69 C 314.77 379.21 314.94 376.73 314.92 374.25 C 317.42 371.40 318.64 367.77 318.95 364.04 C 313.53 364.22 309.12 367.58 305.44 371.24 C 304.62 366.82 304.40 362.02 301.79 358.20 C 299.28 354.72 295.10 353.20 291.47 351.23 C 296.01 340.27 299.61 328.93 302.55 317.44 C 303.52 312.95 304.52 308.44 306.48 304.26 C 307.63 301.94 307.97 299.36 307.90 296.80 C 307.93 294.98 308.00 293.15 308.06 291.33 C 314.90 291.36 321.80 292.42 328.60 291.38 C 331.01 291.22 331.91 288.36 331.57 286.32 C 330.49 283.70 327.60 282.37 324.90 282.41 C 319.84 282.27 314.80 282.78 309.75 282.89 C 309.29 281.04 308.82 279.20 308.34 277.38 C 307.51 278.90 306.65 280.41 305.94 281.99 C 305.24 283.54 304.58 285.10 303.92 286.67 C 300.46 289.01 296.63 291.84 292.18 291.03 C 283.40 289.69 274.16 287.64 267.20 281.77 C 260.88 276.35 257.60 268.48 253.51 261.43 C 250.25 255.84 247.51 249.97 245.02 244.01 C 249.57 246.04 254.82 248.02 259.67 245.69 C 262.28 244.51 266.51 242.81 265.80 239.26 C 264.28 235.28 259.97 233.56 256.78 231.17 C 252.55 228.52 249.47 224.35 245.05 222.01 C 242.47 220.36 240.54 223.63 238.81 225.07 C 239.01 221.86 238.77 218.57 237.45 215.61 C 235.08 210.10 232.38 204.74 229.54 199.46 C 224.28 207.39 225.75 217.48 226.98 226.37 C 227.36 235.57 226.55 244.75 225.96 253.92 C 225.55 267.15 225.69 280.51 223.47 293.59 C 221.55 296.40 219.21 298.88 216.92 301.38 C 213.94 295.24 211.23 288.91 209.79 282.21 C 208.73 277.73 208.46 273.08 207.15 268.66 C 206.26 265.66 203.80 263.56 201.73 261.37 C 199.27 269.16 198.30 277.32 197.45 285.42 C 196.88 291.63 197.47 298.63 193.10 303.68 C 186.99 300.67 182.58 295.08 176.14 292.69 C 173.74 290.84 171.41 288.90 169.03 287.03 C 165.58 284.00 161.67 281.57 157.56 279.55 C 155.56 278.35 152.86 277.26 152.46 274.67 C 151.39 268.85 151.83 262.88 151.67 257.00 C 151.42 250.11 152.81 242.99 150.34 236.36 C 147.45 249.28 149.94 262.57 149.00 275.65 C 148.00 275.25 146.99 274.89 145.97 274.56 C 146.48 274.45 147.52 274.22 148.03 274.10 C 148.88 262.67 148.39 251.17 148.11 239.72 C 143.84 241.96 139.84 244.95 137.47 249.24 C 137.28 248.66 136.91 247.51 136.72 246.93 C 132.11 252.94 130.87 260.54 127.91 267.33 C 124.77 270.45 122.56 274.30 121.35 278.55 C 119.56 284.69 114.40 288.85 111.54 294.42 C 107.35 296.29 105.33 300.69 103.80 304.74 C 101.43 311.37 99.52 318.34 94.99 323.91 C 96.66 320.65 97.78 317.15 98.77 313.63 C 93.52 319.61 89.61 326.59 85.05 333.09 C 80.69 339.46 78.62 347.06 78.64 354.75 C 79.22 354.57 80.38 354.22 80.96 354.05 C 80.20 359.09 81.12 364.41 84.96 368.03 C 89.56 373.37 93.73 379.18 99.18 383.72 C 98.64 383.83 97.55 384.04 97.01 384.15 C 106.69 393.30 119.65 397.97 132.19 401.76 C 130.26 401.62 128.33 401.57 126.40 401.52 C 126.76 406.72 127.55 411.89 128.91 416.92 C 128.38 416.78 127.31 416.50 126.77 416.35 C 127.54 426.19 131.22 435.40 134.16 444.72 C 132.68 445.82 131.21 446.93 129.73 448.04 C 122.89 443.41 117.28 437.17 112.77 430.29 C 110.97 427.32 108.19 425.19 105.20 423.53 C 100.56 431.51 104.06 440.66 103.14 449.26 C 95.24 444.13 89.63 436.43 83.75 429.25 C 75.21 418.73 70.22 405.83 67.26 392.72 C 61.82 370.23 62.74 346.95 62.67 324.00 C 62.40 312.90 63.37 301.75 62.03 290.70 C 61.63 287.03 60.86 283.41 60.26 279.77 C 52.07 278.49 43.99 280.68 35.84 281.13 C 39.37 276.60 43.66 272.76 47.62 268.61 C 49.65 266.28 52.05 263.56 51.72 260.25 C 51.57 257.88 49.29 256.64 47.40 255.73 C 40.12 252.45 32.04 251.07 25.13 246.93 C 21.38 244.64 17.83 242.04 14.04 239.83 C 14.96 241.27 15.89 242.71 16.89 244.10 C 12.03 241.60 9.26 236.27 8.63 231.01 C 8.31 227.15 10.43 223.69 12.87 220.90 C 12.61 222.11 12.36 223.32 12.13 224.53 C 17.55 220.09 22.75 215.27 29.03 212.05 C 44.09 204.07 59.08 195.85 72.93 185.88 C 88.95 174.36 104.45 162.10 118.80 148.53 C 123.35 145.06 127.13 140.41 127.96 134.58 C 136.96 127.06 148.70 124.50 160.11 123.51 C 158.68 122.93 157.25 122.34 155.80 121.81 C 160.98 121.33 166.07 122.54 171.22 122.78 C 173.16 123.04 174.55 121.43 176.03 120.46 C 176.08 121.02 176.20 122.15 176.25 122.71 C 181.74 117.90 187.31 112.92 194.13 110.09 M 130.68 143.88 C 135.10 144.17 139.26 142.46 142.19 139.14 C 137.95 139.11 132.25 138.93 130.68 143.88 M 307.84 138.98 C 309.04 144.98 314.38 148.52 317.81 153.17 C 323.94 161.11 329.66 169.37 335.25 177.70 C 337.54 180.84 338.57 185.95 343.13 186.42 C 340.42 178.86 335.66 172.17 330.69 165.93 C 330.92 165.55 331.39 164.78 331.62 164.40 C 339.19 171.18 345.77 179.00 353.61 185.47 C 353.97 182.17 351.72 179.58 349.71 177.28 C 343.86 170.79 337.19 165.12 331.03 158.94 C 329.16 157.03 326.97 155.47 324.64 154.19 C 323.17 152.36 321.20 151.05 319.42 149.56 C 315.29 146.32 312.14 142.03 307.84 138.98 M 214.44 144.81 C 218.74 148.66 224.88 148.11 230.08 149.82 C 245.08 153.32 260.15 158.09 272.69 167.34 C 276.03 169.57 278.95 172.87 283.14 173.40 C 277.11 165.76 268.67 160.28 260.03 156.01 C 245.55 150.03 230.20 145.34 214.44 144.81 M 346.09 145.06 C 342.54 147.03 339.99 151.35 341.48 155.39 C 343.33 159.59 346.83 162.80 350.22 165.79 C 354.24 169.55 360.10 167.90 365.05 168.29 C 369.74 168.12 373.80 170.88 377.20 173.82 C 381.20 177.22 383.39 182.20 387.28 185.70 C 390.24 188.40 393.39 190.88 396.37 193.56 C 397.39 191.87 398.62 190.10 398.43 188.02 C 398.31 182.62 396.17 177.42 392.94 173.14 C 388.90 167.86 384.73 162.59 379.54 158.38 C 373.32 153.33 367.03 147.92 359.20 145.56 C 355.04 144.33 350.07 142.25 346.09 145.06 M 174.42 174.23 C 171.86 187.11 172.96 200.55 176.70 213.10 C 177.03 206.37 175.35 199.74 175.68 193.01 C 176.05 184.05 176.96 174.89 180.60 166.59 C 182.04 163.32 183.54 160.08 184.71 156.70 C 178.59 160.46 176.15 167.65 174.42 174.23 M 132.41 163.37 C 122.12 170.96 115.36 182.12 109.12 193.04 C 106.83 197.14 104.34 201.30 104.03 206.12 C 108.29 201.43 110.76 195.51 114.27 190.30 C 118.60 183.72 123.10 177.21 128.27 171.26 C 132.64 166.22 138.64 162.96 143.04 157.94 C 139.10 158.86 135.49 160.78 132.41 163.37 M 189.69 181.84 C 187.04 186.37 182.22 189.06 179.44 193.44 C 177.51 200.20 177.40 207.41 178.39 214.35 C 178.71 215.77 178.49 218.39 176.39 217.66 C 174.78 214.25 174.36 210.46 173.60 206.81 C 169.97 210.67 167.15 215.19 164.75 219.89 C 161.93 225.12 162.36 231.30 162.75 237.02 C 163.12 242.46 167.42 246.37 171.11 249.89 C 174.60 253.22 179.46 254.28 184.03 255.23 C 186.66 255.74 189.54 256.28 192.06 255.02 C 199.48 251.65 206.68 247.21 211.67 240.62 C 217.42 232.90 222.40 223.94 222.32 214.03 C 223.08 204.00 218.68 194.65 213.85 186.17 C 210.30 181.32 205.30 177.32 199.64 175.24 C 194.99 174.02 191.83 178.42 189.69 181.84 M 291.17 180.16 C 291.77 181.92 292.74 183.54 293.93 184.96 C 293.52 185.24 292.68 185.80 292.27 186.08 C 294.85 191.53 296.68 198.01 302.28 201.19 C 301.93 195.85 298.87 191.30 295.79 187.13 C 296.21 187.41 297.03 187.97 297.45 188.25 C 308.60 195.41 322.22 195.43 334.99 195.35 C 340.37 195.10 345.60 193.45 351.01 193.66 C 357.29 193.82 363.59 192.23 369.84 193.33 C 373.50 193.86 375.84 197.52 376.25 200.97 C 377.54 211.63 372.98 222.20 366.39 230.37 C 362.61 235.40 356.43 237.60 350.73 239.66 C 336.10 243.82 320.52 240.03 306.88 234.28 C 307.34 231.44 308.13 228.24 306.36 225.66 C 303.73 221.78 299.14 220.04 295.14 217.95 C 294.06 218.50 292.98 219.05 291.91 219.60 C 289.65 218.27 287.36 217.01 285.03 215.83 C 285.06 219.16 285.41 222.69 288.00 225.10 C 292.34 234.25 301.40 240.44 310.71 243.86 L 309.95 243.58 C 307.94 247.07 308.96 251.20 309.04 255.00 C 309.54 261.05 308.39 267.05 307.37 272.99 C 307.78 273.31 308.59 273.94 308.99 274.26 C 309.61 274.08 310.86 273.71 311.48 273.53 C 312.43 263.86 311.32 254.14 312.22 244.47 C 326.64 250.28 343.67 252.02 358.00 244.97 C 364.25 241.54 370.97 238.14 375.03 232.01 C 381.87 222.13 386.36 209.57 383.46 197.54 C 381.90 190.08 374.38 185.03 366.99 185.00 C 355.26 184.87 343.76 188.57 332.00 187.36 C 320.16 188.00 308.10 186.49 297.28 181.41 C 295.46 180.50 293.03 178.20 291.17 180.16 M 96.21 190.21 C 90.01 197.68 84.55 205.79 77.72 212.73 C 72.81 217.33 67.76 222.14 61.28 224.42 C 57.68 225.71 53.65 228.56 54.27 232.92 C 55.18 238.78 59.71 243.24 63.87 247.11 C 70.84 253.54 81.15 254.88 90.14 253.01 C 105.23 248.90 117.67 238.29 126.97 226.03 C 128.98 223.07 130.87 219.93 131.81 216.46 C 133.62 214.18 134.98 211.41 133.43 208.60 C 126.73 212.05 119.36 208.55 112.30 209.77 C 110.85 208.86 109.45 207.83 107.86 207.19 C 100.90 206.61 94.75 210.44 89.86 214.98 C 90.02 215.69 90.34 217.12 90.50 217.83 C 96.88 218.90 100.38 211.72 106.60 211.76 C 106.50 212.87 106.39 213.97 106.28 215.08 C 101.09 217.62 97.14 222.38 95.94 228.07 C 101.94 226.81 106.49 222.46 111.88 219.85 C 115.01 219.17 118.10 218.31 121.15 217.34 C 120.18 219.67 119.25 222.02 118.37 224.39 C 111.83 231.98 103.91 238.51 94.89 242.92 C 87.19 246.77 77.21 247.32 70.04 242.01 C 67.17 239.81 63.32 237.20 63.63 233.11 C 66.90 230.02 71.26 228.50 74.81 225.80 C 84.91 218.21 92.80 208.10 99.36 197.39 C 101.58 193.91 102.68 189.86 102.99 185.77 C 100.41 186.69 97.89 187.98 96.21 190.21 M 345.77 194.45 C 346.71 200.31 350.42 205.12 352.38 210.62 C 355.13 217.94 358.51 225.04 360.56 232.61 C 361.25 232.70 362.64 232.86 363.33 232.94 C 362.82 229.86 362.27 226.76 361.13 223.85 C 357.52 214.94 354.37 205.80 349.59 197.43 C 348.88 195.85 347.18 195.23 345.77 194.45 M 303.87 202.14 C 304.42 203.91 304.90 205.71 305.65 207.41 C 304.68 206.78 303.69 206.19 302.67 205.64 C 302.77 207.59 302.48 209.69 303.42 211.49 C 300.47 208.78 296.97 206.63 293.21 205.27 C 291.50 206.28 293.01 208.12 293.56 209.39 C 296.20 213.62 299.80 217.45 304.46 219.42 C 309.66 221.56 313.96 226.81 320.13 225.24 C 319.02 223.90 317.93 222.55 316.71 221.33 C 313.40 217.86 308.49 216.59 305.18 213.12 L 305.88 213.55 C 307.53 212.07 307.22 209.65 306.13 207.95 C 309.97 210.77 314.70 212.01 319.00 213.98 C 322.81 215.31 327.03 217.53 331.09 215.91 C 329.97 213.72 327.74 212.52 325.64 211.45 C 318.54 208.00 311.78 203.53 303.87 202.14 M 14.02 237.24 C 14.30 233.34 13.95 229.44 13.21 225.61 C 9.87 228.82 10.86 234.27 14.02 237.24 M 80.45 270.09 C 80.42 275.48 79.63 281.01 80.87 286.32 C 83.65 292.85 91.61 294.50 98.01 294.47 C 100.32 294.35 103.51 294.87 104.64 292.25 C 98.30 291.55 91.22 292.09 85.77 288.19 C 81.64 283.48 82.83 276.58 83.42 270.86 C 82.43 270.61 81.44 270.35 80.45 270.09 M 309.27 274.94 C 309.32 275.58 309.43 276.85 309.49 277.49 C 316.84 278.68 324.38 279.27 331.75 277.87 C 331.78 276.69 331.81 275.52 331.84 274.34 C 324.32 274.71 316.70 273.33 309.27 274.94 Z" />
</g>
<g id="#1c0605ff">
<path fill="#1c0605" opacity="1.00" d=" M 290.97 115.38 C 292.24 115.38 293.52 115.39 294.79 115.40 C 298.20 115.49 301.60 115.59 305.01 115.73 C 304.14 117.23 303.39 118.84 302.16 120.09 C 300.13 120.76 297.94 120.48 295.86 120.36 C 294.24 118.69 292.60 117.04 290.97 115.38 Z" />
</g>
<g id="#563236ff">
<path fill="#563236" opacity="1.00" d=" M 140.82 123.73 C 145.66 122.39 150.76 121.01 155.80 121.81 C 157.25 122.34 158.68 122.93 160.11 123.51 C 148.70 124.50 136.96 127.06 127.96 134.58 C 122.14 138.03 118.89 145.28 111.88 146.64 C 113.98 142.35 117.78 139.36 121.24 136.22 C 127.10 131.17 133.17 125.79 140.82 123.73 Z" />
</g>
<g id="#492422ff">
<path fill="#492422" opacity="1.00" d=" M 366.59 139.39 C 361.82 135.18 355.76 132.38 352.14 126.96 C 360.61 130.89 368.14 136.71 375.01 142.98 C 380.74 148.91 387.24 154.25 391.86 161.15 C 393.74 165.06 398.04 168.78 396.56 173.50 C 394.97 170.21 393.10 167.06 390.85 164.18 C 383.63 155.12 375.34 146.96 366.59 139.39 Z" />
</g>
<g id="#83434cff">
<path fill="#83434c" opacity="1.00" d=" M 111.88 146.64 C 118.89 145.28 122.14 138.03 127.96 134.58 C 127.13 140.41 123.35 145.06 118.80 148.53 C 115.43 147.69 112.99 150.63 110.56 152.41 C 111.01 150.49 111.44 148.56 111.88 146.64 Z" />
</g>
<g id="#7a282fff">
<path fill="#7a282f" opacity="1.00" d=" M 130.68 143.88 C 132.25 138.93 137.95 139.11 142.19 139.14 C 139.26 142.46 135.10 144.17 130.68 143.88 Z" />
</g>
<g id="#601c21ff">
<path fill="#601c21" opacity="1.00" d=" M 307.84 138.98 C 312.14 142.03 315.29 146.32 319.42 149.56 C 321.20 151.05 323.17 152.36 324.64 154.19 C 326.28 158.27 327.74 162.56 330.69 165.93 C 335.66 172.17 340.42 178.86 343.13 186.42 C 338.57 185.95 337.54 180.84 335.25 177.70 C 329.66 169.37 323.94 161.11 317.81 153.17 C 314.38 148.52 309.04 144.98 307.84 138.98 Z" />
</g>
<g id="#601e1fff">
<path fill="#601e1f" opacity="1.00" d=" M 214.44 144.81 C 230.20 145.34 245.55 150.03 260.03 156.01 C 268.67 160.28 277.11 165.76 283.14 173.40 C 278.95 172.87 276.03 169.57 272.69 167.34 C 260.15 158.09 245.08 153.32 230.08 149.82 C 224.88 148.11 218.74 148.66 214.44 144.81 Z" />
</g>
<g id="#bc6879ff">
<path fill="#bc6879" opacity="1.00" d=" M 346.09 145.06 C 350.07 142.25 355.04 144.33 359.20 145.56 C 367.03 147.92 373.32 153.33 379.54 158.38 C 384.73 162.59 388.90 167.86 392.94 173.14 C 396.17 177.42 398.31 182.62 398.43 188.02 C 398.62 190.10 397.39 191.87 396.37 193.56 C 393.39 190.88 390.24 188.40 387.28 185.70 C 383.39 182.20 381.20 177.22 377.20 173.82 C 373.80 170.88 369.74 168.12 365.05 168.29 C 360.10 167.90 354.24 169.55 350.22 165.79 C 346.83 162.80 343.33 159.59 341.48 155.39 C 339.99 151.35 342.54 147.03 346.09 145.06 Z" />
</g>
<g id="#946064ff">
<path fill="#946064" opacity="1.00" d=" M 91.21 163.23 C 97.68 157.16 105.61 152.94 111.88 146.64 C 111.44 148.56 111.01 150.49 110.56 152.41 C 87.70 171.04 64.53 189.74 38.10 203.15 C 29.24 208.32 19.32 212.58 12.87 220.90 C 15.19 215.95 17.78 210.70 22.61 207.74 C 28.42 204.20 34.76 201.66 41.05 199.10 C 44.65 197.63 47.52 194.92 50.89 193.07 C 53.74 191.48 56.80 190.27 59.51 188.43 C 70.36 180.40 81.20 172.31 91.21 163.23 Z" />
</g>
<g id="#5d1c21ff">
<path fill="#5d1c21" opacity="1.00" d=" M 110.56 152.41 C 112.99 150.63 115.43 147.69 118.80 148.53 C 104.45 162.10 88.95 174.36 72.93 185.88 C 59.08 195.85 44.09 204.07 29.03 212.05 C 22.75 215.27 17.55 220.09 12.13 224.53 C 12.36 223.32 12.61 222.11 12.87 220.90 C 19.32 212.58 29.24 208.32 38.10 203.15 C 64.53 189.74 87.70 171.04 110.56 152.41 Z" />
</g>
<g id="#74313aff">
<path fill="#74313a" opacity="1.00" d=" M 324.64 154.19 C 326.97 155.47 329.16 157.03 331.03 158.94 C 337.19 165.12 343.86 170.79 349.71 177.28 C 351.72 179.58 353.97 182.17 353.61 185.47 C 345.77 179.00 339.19 171.18 331.62 164.40 C 331.39 164.78 330.92 165.55 330.69 165.93 C 327.74 162.56 326.28 158.27 324.64 154.19 Z" />
</g>
<g id="#641f22ff">
<path fill="#641f22" opacity="1.00" d=" M 174.42 174.23 C 176.15 167.65 178.59 160.46 184.71 156.70 C 183.54 160.08 182.04 163.32 180.60 166.59 C 176.96 174.89 176.05 184.05 175.68 193.01 C 175.35 199.74 177.03 206.37 176.70 213.10 C 172.96 200.55 171.86 187.11 174.42 174.23 Z" />
</g>
<g id="#671d22ff">
<path fill="#671d22" opacity="1.00" d=" M 132.41 163.37 C 135.49 160.78 139.10 158.86 143.04 157.94 C 138.64 162.96 132.64 166.22 128.27 171.26 C 123.10 177.21 118.60 183.72 114.27 190.30 C 110.76 195.51 108.29 201.43 104.03 206.12 C 104.34 201.30 106.83 197.14 109.12 193.04 C 115.36 182.12 122.12 170.96 132.41 163.37 Z" />
</g>
<g id="#94565cff">
<path fill="#94565c" opacity="1.00" d=" M 391.86 161.15 C 396.81 165.85 399.58 172.20 402.92 178.03 C 407.26 186.51 411.23 195.27 413.61 204.53 C 417.37 218.83 421.20 233.24 422.28 248.05 C 422.67 253.41 423.39 258.75 423.90 264.11 C 422.68 263.74 421.46 263.38 420.26 263.01 C 420.81 264.36 421.31 265.74 422.04 267.01 C 423.54 267.99 425.29 268.50 426.99 269.05 C 426.33 269.00 425.02 268.91 424.36 268.86 C 424.12 276.28 424.20 283.71 424.86 291.10 C 425.37 298.00 426.25 305.21 423.78 311.85 C 423.10 313.37 422.36 314.87 421.69 316.41 C 421.68 304.93 422.13 293.46 422.12 281.98 C 422.12 274.74 419.78 267.78 419.37 260.58 C 418.89 252.84 418.65 245.07 417.37 237.41 C 416.35 231.52 416.30 225.51 415.10 219.66 C 410.71 203.59 402.21 189.09 396.56 173.50 C 398.04 168.78 393.74 165.06 391.86 161.15 Z" />
</g>
<g id="#be687bff">
<path fill="#be687b" opacity="1.00" d=" M 189.69 181.84 C 191.83 178.42 194.99 174.02 199.64 175.24 C 205.30 177.32 210.30 181.32 213.85 186.17 C 218.68 194.65 223.08 204.00 222.32 214.03 C 222.40 223.94 217.42 232.90 211.67 240.62 C 206.68 247.21 199.48 251.65 192.06 255.02 C 189.54 256.28 186.66 255.74 184.03 255.23 C 179.46 254.28 174.60 253.22 171.11 249.89 C 167.42 246.37 163.12 242.46 162.75 237.02 C 162.36 231.30 161.93 225.12 164.75 219.89 C 167.15 215.19 169.97 210.67 173.60 206.81 C 174.36 210.46 174.78 214.25 176.39 217.66 C 178.49 218.39 178.71 215.77 178.39 214.35 C 177.40 207.41 177.51 200.20 179.44 193.44 C 182.22 189.06 187.04 186.37 189.69 181.84 Z" />
</g>
<g id="#cc7a80ff">
<path fill="#cc7a80" opacity="1.00" d=" M 291.17 180.16 C 293.03 178.20 295.46 180.50 297.28 181.41 C 297.21 183.69 297.22 185.98 297.45 188.25 C 297.03 187.97 296.21 187.41 295.79 187.13 C 295.16 186.41 294.54 185.69 293.93 184.96 C 292.74 183.54 291.77 181.92 291.17 180.16 Z" />
</g>
<g id="#df9e9fff">
<path fill="#df9e9f" opacity="1.00" d=" M 297.45 188.25 C 297.22 185.98 297.21 183.69 297.28 181.41 C 308.10 186.49 320.16 188.00 332.00 187.36 C 343.76 188.57 355.26 184.87 366.99 185.00 C 374.38 185.03 381.90 190.08 383.46 197.54 C 386.36 209.57 381.87 222.13 375.03 232.01 C 370.97 238.14 364.25 241.54 358.00 244.97 C 343.67 252.02 326.64 250.28 312.22 244.47 C 311.84 244.31 311.09 244.01 310.71 243.86 C 301.40 240.44 292.34 234.25 288.00 225.10 C 287.79 223.58 287.64 222.06 287.50 220.53 C 294.81 223.89 299.77 230.61 306.88 234.28 C 320.52 240.03 336.10 243.82 350.73 239.66 C 356.43 237.60 362.61 235.40 366.39 230.37 C 372.98 222.20 377.54 211.63 376.25 200.97 C 375.84 197.52 373.50 193.86 369.84 193.33 C 363.59 192.23 357.29 193.82 351.01 193.66 C 345.60 193.45 340.37 195.10 334.99 195.35 C 322.22 195.43 308.60 195.41 297.45 188.25 Z" />
</g>
<g id="#712c2dff">
<path fill="#712c2d" opacity="1.00" d=" M 292.27 186.08 C 292.68 185.80 293.52 185.24 293.93 184.96 C 294.54 185.69 295.16 186.41 295.79 187.13 C 298.87 191.30 301.93 195.85 302.28 201.19 C 296.68 198.01 294.85 191.53 292.27 186.08 Z" />
</g>
<g id="#e09ea0ff">
<path fill="#e09ea0" opacity="1.00" d=" M 96.21 190.21 C 97.89 187.98 100.41 186.69 102.99 185.77 C 102.68 189.86 101.58 193.91 99.36 197.39 C 92.80 208.10 84.91 218.21 74.81 225.80 C 71.26 228.50 66.90 230.02 63.63 233.11 C 63.32 237.20 67.17 239.81 70.04 242.01 C 77.21 247.32 87.19 246.77 94.89 242.92 C 103.91 238.51 111.83 231.98 118.37 224.39 C 122.48 219.91 126.34 215.10 131.46 211.70 C 131.60 213.28 131.75 214.86 131.81 216.46 C 130.87 219.93 128.98 223.07 126.97 226.03 C 117.67 238.29 105.23 248.90 90.14 253.01 C 81.15 254.88 70.84 253.54 63.87 247.11 C 59.71 243.24 55.18 238.78 54.27 232.92 C 53.65 228.56 57.68 225.71 61.28 224.42 C 67.76 222.14 72.81 217.33 77.72 212.73 C 84.55 205.79 90.01 197.68 96.21 190.21 Z" />
</g>
<g id="#5c1a1bff">
<path fill="#5c1a1b" opacity="1.00" d=" M 345.77 194.45 C 347.18 195.23 348.88 195.85 349.59 197.43 C 354.37 205.80 357.52 214.94 361.13 223.85 C 362.27 226.76 362.82 229.86 363.33 232.94 C 362.64 232.86 361.25 232.70 360.56 232.61 C 358.51 225.04 355.13 217.94 352.38 210.62 C 350.42 205.12 346.71 200.31 345.77 194.45 Z" />
</g>
<g id="#96545aff">
<path fill="#96545a" opacity="1.00" d=" M 226.98 226.37 C 225.75 217.48 224.28 207.39 229.54 199.46 C 232.38 204.74 235.08 210.10 237.45 215.61 C 238.77 218.57 239.01 221.86 238.81 225.07 C 238.79 225.58 238.74 226.62 238.71 227.13 C 235.28 219.40 233.59 210.93 229.19 203.64 C 229.42 207.71 229.95 211.81 231.36 215.67 C 229.49 224.73 230.42 234.07 229.63 243.24 C 229.04 234.38 229.87 225.46 228.72 216.63 C 228.05 219.86 227.38 223.09 226.98 226.37 Z" />
</g>
<g id="#cf8789ff">
<path fill="#cf8789" opacity="1.00" d=" M 303.87 202.14 C 311.78 203.53 318.54 208.00 325.64 211.45 C 327.74 212.52 329.97 213.72 331.09 215.91 C 327.03 217.53 322.81 215.31 319.00 213.98 C 314.70 212.01 309.97 210.77 306.13 207.95 L 305.65 207.41 C 304.90 205.71 304.42 203.91 303.87 202.14 Z" />
</g>
<g id="#613736ff">
<path fill="#613736" opacity="1.00" d=" M 229.19 203.64 C 233.59 210.93 235.28 219.40 238.71 227.13 C 240.18 232.98 242.56 238.53 245.02 244.01 C 247.51 249.97 250.25 255.84 253.51 261.43 C 257.60 268.48 260.88 276.35 267.20 281.77 C 274.16 287.64 283.40 289.69 292.18 291.03 C 296.63 291.84 300.46 289.01 303.92 286.67 C 302.87 289.22 301.68 291.71 300.56 294.24 C 301.73 294.64 302.91 295.04 304.09 295.42 C 305.28 291.04 305.55 286.50 305.94 281.99 C 306.65 280.41 307.51 278.90 308.34 277.38 C 308.82 279.20 309.29 281.04 309.75 282.89 C 314.80 282.78 319.84 282.27 324.90 282.41 C 327.60 282.37 330.49 283.70 331.57 286.32 C 331.91 288.36 331.01 291.22 328.60 291.38 C 321.80 292.42 314.90 291.36 308.06 291.33 C 308.00 293.15 307.93 294.98 307.90 296.80 C 304.71 296.01 301.54 295.09 298.53 293.74 C 293.52 291.47 287.87 291.57 282.63 290.11 C 278.63 289.01 274.43 288.46 270.31 289.26 C 267.84 286.54 265.14 284.05 262.59 281.42 C 256.89 275.65 253.77 268.03 249.89 261.05 C 245.28 252.71 241.46 243.96 237.99 235.10 C 235.52 228.71 233.85 222.05 231.36 215.67 C 229.95 211.81 229.42 207.71 229.19 203.64 M 306.83 283.54 C 306.81 285.74 306.78 287.93 306.76 290.13 C 314.31 290.16 322.07 291.20 329.47 289.35 C 331.62 286.87 328.64 283.97 326.01 283.94 C 319.63 283.48 313.20 284.48 306.83 283.54 Z" />
<path fill="#613736" opacity="1.00" d=" M 198.17 299.23 C 198.16 290.23 198.38 280.91 201.90 272.49 C 202.08 279.65 201.44 286.78 200.19 293.82 C 199.58 295.64 198.87 297.43 198.17 299.23 Z" />
</g>
<g id="#d38b8dff">
<path fill="#d38b8d" opacity="1.00" d=" M 293.21 205.27 C 296.97 206.63 300.47 208.78 303.42 211.49 C 303.86 211.90 304.74 212.71 305.18 213.12 C 308.49 216.59 313.40 217.86 316.71 221.33 C 317.93 222.55 319.02 223.90 320.13 225.24 C 313.96 226.81 309.66 221.56 304.46 219.42 C 299.80 217.45 296.20 213.62 293.56 209.39 C 293.01 208.12 291.50 206.28 293.21 205.27 Z" />
</g>
<g id="#69302dff">
<path fill="#69302d" opacity="1.00" d=" M 302.67 205.64 C 303.69 206.19 304.68 206.78 305.65 207.41 L 306.13 207.95 C 307.22 209.65 307.53 212.07 305.88 213.55 L 305.18 213.12 C 304.74 212.71 303.86 211.90 303.42 211.49 C 302.48 209.69 302.77 207.59 302.67 205.64 Z" />
</g>
<g id="#bc6e74ff">
<path fill="#bc6e74" opacity="1.00" d=" M 89.86 214.98 C 94.75 210.44 100.90 206.61 107.86 207.19 C 109.45 207.83 110.85 208.86 112.30 209.77 C 119.36 208.55 126.73 212.05 133.43 208.60 C 134.98 211.41 133.62 214.18 131.81 216.46 C 131.75 214.86 131.60 213.28 131.46 211.70 C 126.34 215.10 122.48 219.91 118.37 224.39 C 119.25 222.02 120.18 219.67 121.15 217.34 C 118.10 218.31 115.01 219.17 111.88 219.85 C 114.16 218.54 116.41 217.15 118.66 215.78 C 118.76 215.01 118.96 213.47 119.06 212.70 C 114.63 211.98 110.14 212.77 106.28 215.08 C 106.39 213.97 106.50 212.87 106.60 211.76 C 100.38 211.72 96.88 218.90 90.50 217.83 C 90.34 217.12 90.02 215.69 89.86 214.98 Z" />
</g>
<g id="#d68a90ff">
<path fill="#d68a90" opacity="1.00" d=" M 106.28 215.08 C 110.14 212.77 114.63 211.98 119.06 212.70 C 118.96 213.47 118.76 215.01 118.66 215.78 C 116.41 217.15 114.16 218.54 111.88 219.85 C 106.49 222.46 101.94 226.81 95.94 228.07 C 97.14 222.38 101.09 217.62 106.28 215.08 Z" />
</g>
<g id="#fef1e8ff">
<path fill="#fef1e8" opacity="1.00" d=" M 229.63 243.24 C 230.42 234.07 229.49 224.73 231.36 215.67 C 233.85 222.05 235.52 228.71 237.99 235.10 C 241.46 243.96 245.28 252.71 249.89 261.05 C 253.77 268.03 256.89 275.65 262.59 281.42 C 265.14 284.05 267.84 286.54 270.31 289.26 C 260.94 290.65 251.64 292.67 242.72 295.91 C 240.28 296.84 238.06 298.23 235.87 299.63 C 241.44 301.23 246.99 298.92 252.52 298.38 C 250.02 302.25 247.02 305.82 244.88 309.92 C 240.82 316.85 240.13 325.34 242.00 333.05 C 244.15 341.39 250.67 347.90 257.95 352.09 C 257.71 351.98 257.25 351.75 257.01 351.63 C 257.25 353.56 257.76 355.52 257.45 357.48 C 255.49 360.79 251.58 363.02 251.03 367.07 C 250.72 370.12 250.71 373.68 252.91 376.09 C 255.08 378.45 257.81 380.20 260.38 382.08 C 259.17 384.33 257.69 386.53 257.21 389.09 C 257.23 391.63 258.35 393.99 259.15 396.36 C 258.55 396.86 257.94 397.37 257.33 397.87 C 252.99 401.32 248.70 404.87 245.13 409.15 C 243.70 411.09 241.49 412.16 239.08 412.20 C 217.33 413.45 195.53 411.27 174.07 407.76 C 156.40 404.71 138.56 401.55 121.72 395.25 C 121.65 393.74 121.58 392.24 121.51 390.74 C 128.78 389.78 136.00 387.89 142.48 384.40 C 146.05 382.54 146.91 378.20 147.65 374.60 C 148.43 368.84 148.33 362.61 145.79 357.28 C 142.82 354.15 138.28 352.95 135.60 349.47 C 132.64 345.70 129.29 342.17 124.95 340.01 C 119.81 337.37 115.15 332.78 109.01 333.02 C 102.75 333.15 96.56 334.19 90.32 334.62 C 90.59 332.94 90.85 331.26 91.20 329.60 C 92.39 327.65 93.72 325.80 94.99 323.91 C 99.52 318.34 101.43 311.37 103.80 304.74 C 105.33 300.69 107.35 296.29 111.54 294.42 C 113.65 293.73 116.33 293.71 117.64 291.63 C 121.45 286.29 124.59 280.50 128.17 275.00 C 131.49 275.86 134.72 277.01 137.82 278.48 C 132.40 282.71 126.14 286.57 123.14 293.04 C 119.96 299.88 118.57 307.51 118.66 315.03 C 118.79 321.02 120.09 327.25 123.90 332.04 C 130.99 340.87 143.33 343.27 154.08 342.08 C 160.71 341.60 166.66 337.87 170.98 332.98 C 176.89 326.28 178.16 317.06 178.63 308.48 C 180.30 308.74 181.98 309.00 183.64 309.33 C 185.02 309.99 186.36 310.73 187.71 311.45 C 191.51 308.78 195.75 306.84 200.19 305.51 C 200.12 301.61 200.02 297.71 200.19 293.82 C 201.44 286.78 202.08 279.65 201.90 272.49 C 202.09 271.95 202.46 270.86 202.65 270.32 C 203.12 270.29 204.06 270.23 204.53 270.20 C 205.17 277.24 205.51 284.41 207.80 291.16 C 209.58 296.86 212.42 302.13 215.39 307.28 C 217.70 306.57 220.03 305.89 222.23 304.88 C 224.16 302.01 225.76 298.87 226.44 295.46 C 228.75 283.91 228.23 272.07 229.26 260.38 C 229.68 254.68 229.65 248.96 229.63 243.24 M 169.24 350.18 C 167.16 354.88 167.99 360.67 170.91 364.86 C 173.31 370.32 177.17 375.62 183.11 377.47 C 185.20 378.04 187.27 378.67 189.35 379.28 C 188.93 384.91 189.04 391.41 193.42 395.60 C 198.39 399.51 205.82 397.10 209.59 392.62 C 213.77 387.75 214.57 381.11 214.46 374.93 C 216.64 375.05 218.82 375.14 220.99 375.28 C 223.01 372.88 224.94 370.39 226.63 367.74 C 227.60 365.90 227.58 363.75 227.87 361.75 C 224.20 362.69 221.78 365.66 218.96 367.94 C 216.09 370.36 211.17 370.30 208.86 367.13 C 206.59 363.84 205.88 359.79 204.58 356.07 C 203.08 356.26 201.56 356.42 200.10 356.87 C 198.82 360.83 198.48 365.35 195.53 368.55 C 193.23 371.38 189.63 373.07 185.97 372.71 C 181.22 373.00 178.36 368.40 176.15 364.88 C 174.92 360.86 173.77 356.80 172.00 352.98 C 171.34 351.82 170.95 349.95 169.24 350.18 Z" />
</g>
<g id="#cd8688ff">
<path fill="#cd8688" opacity="1.00" d=" M 285.03 215.83 C 287.36 217.01 289.65 218.27 291.91 219.60 C 292.98 219.05 294.06 218.50 295.14 217.95 C 299.14 220.04 303.73 221.78 306.36 225.66 C 308.13 228.24 307.34 231.44 306.88 234.28 C 299.77 230.61 294.81 223.89 287.50 220.53 C 287.64 222.06 287.79 223.58 288.00 225.10 C 285.41 222.69 285.06 219.16 285.03 215.83 Z" />
</g>
<g id="#714342ff">
<path fill="#714342" opacity="1.00" d=" M 228.72 216.63 C 229.87 225.46 229.04 234.38 229.63 243.24 C 229.65 248.96 229.68 254.68 229.26 260.38 C 228.23 272.07 228.75 283.91 226.44 295.46 C 225.76 298.87 224.16 302.01 222.23 304.88 C 221.78 304.39 220.89 303.40 220.44 302.91 C 221.57 299.84 222.65 296.76 223.47 293.59 C 225.69 280.51 225.55 267.15 225.96 253.92 C 226.55 244.75 227.36 235.57 226.98 226.37 C 227.38 223.09 228.05 219.86 228.72 216.63 Z" />
</g>
<g id="#b56573ff">
<path fill="#b56573" opacity="1.00" d=" M 238.81 225.07 C 240.54 223.63 242.47 220.36 245.05 222.01 C 249.47 224.35 252.55 228.52 256.78 231.17 C 259.97 233.56 264.28 235.28 265.80 239.26 C 266.51 242.81 262.28 244.51 259.67 245.69 C 254.82 248.02 249.57 246.04 245.02 244.01 C 242.56 238.53 240.18 232.98 238.71 227.13 C 238.74 226.62 238.79 225.58 238.81 225.07 Z" />
</g>
<g id="#c19fa5ff">
<path fill="#c19fa5" opacity="1.00" d=" M 14.02 237.24 C 10.86 234.27 9.87 228.82 13.21 225.61 C 13.95 229.44 14.30 233.34 14.02 237.24 Z" />
</g>
<g id="#4e2829ff">
<path fill="#4e2829" opacity="1.00" d=" M 150.34 236.36 C 152.81 242.99 151.42 250.11 151.67 257.00 C 151.83 262.88 151.39 268.85 152.46 274.67 C 152.86 277.26 155.56 278.35 157.56 279.55 C 161.67 281.57 165.58 284.00 169.03 287.03 C 162.19 283.52 155.46 279.83 149.00 275.65 C 149.94 262.57 147.45 249.28 150.34 236.36 Z" />
</g>
<g id="#3a1c1eff">
<path fill="#3a1c1e" opacity="1.00" d=" M 14.04 239.83 C 17.83 242.04 21.38 244.64 25.13 246.93 C 32.04 251.07 40.12 252.45 47.40 255.73 C 49.29 256.64 51.57 257.88 51.72 260.25 C 52.05 263.56 49.65 266.28 47.62 268.61 C 43.66 272.76 39.37 276.60 35.84 281.13 C 43.99 280.68 52.07 278.49 60.26 279.77 C 60.86 283.41 61.63 287.03 62.03 290.70 C 61.22 306.20 62.01 321.72 61.53 337.23 C 60.89 328.83 61.44 320.41 61.33 312.00 C 61.24 305.20 62.00 298.25 60.07 291.63 C 59.32 288.75 58.42 285.92 57.54 283.09 C 53.88 282.95 50.28 283.65 46.77 284.58 C 41.66 285.92 36.31 285.84 31.13 285.02 C 31.46 282.62 30.95 279.71 32.95 277.92 C 36.91 273.70 41.78 270.45 45.71 266.19 C 47.12 264.36 49.43 262.24 48.46 259.70 C 43.26 256.08 36.79 255.28 30.80 253.70 C 25.56 251.57 20.95 247.98 16.89 244.10 C 15.89 242.71 14.96 241.27 14.04 239.83 Z" />
</g>
<g id="#fdfcfaff">
<path fill="#fdfcfa" opacity="1.00" d=" M 137.47 249.24 C 139.84 244.95 143.84 241.96 148.11 239.72 C 148.39 251.17 148.88 262.67 148.03 274.10 C 147.52 274.22 146.48 274.45 145.97 274.56 C 140.99 273.35 135.96 272.38 130.94 271.35 C 130.77 270.85 130.43 269.85 130.26 269.35 C 133.27 262.89 135.82 256.19 137.47 249.24 Z" />
</g>
<g id="#601a1dff">
<path fill="#601a1d" opacity="1.00" d=" M 368.14 259.93 C 367.26 253.79 363.87 247.93 364.93 241.61 C 368.81 244.05 368.85 249.10 369.92 253.09 C 375.18 275.89 375.90 299.77 371.71 322.80 C 366.16 350.57 350.89 374.94 335.87 398.45 C 336.48 394.92 337.60 391.48 339.30 388.32 C 350.74 367.50 363.60 346.73 368.08 323.05 C 372.88 302.33 371.74 280.73 368.14 259.93 Z" />
</g>
<g id="#4c0e0dff">
<path fill="#4c0e0d" opacity="1.00" d=" M 309.04 255.00 C 308.96 251.20 307.94 247.07 309.95 243.58 L 310.71 243.86 C 311.09 244.01 311.84 244.31 312.22 244.47 C 311.32 254.14 312.43 263.86 311.48 273.53 C 310.86 273.71 309.61 274.08 308.99 274.26 C 308.59 273.94 307.78 273.31 307.37 272.99 C 308.39 267.05 309.54 261.05 309.04 255.00 Z" />
</g>
<g id="#52302dff">
<path fill="#52302d" opacity="1.00" d=" M 127.91 267.33 C 130.87 260.54 132.11 252.94 136.72 246.93 C 136.91 247.51 137.28 248.66 137.47 249.24 C 135.82 256.19 133.27 262.89 130.26 269.35 C 129.53 268.60 128.72 267.96 127.91 267.33 Z" />
</g>
<g id="#9a5662ff">
<path fill="#9a5662" opacity="1.00" d=" M 30.80 253.70 C 36.79 255.28 43.26 256.08 48.46 259.70 C 49.43 262.24 47.12 264.36 45.71 266.19 C 41.77 260.76 34.42 259.32 30.80 253.70 Z" />
</g>
<g id="#8f585bff">
<path fill="#8f585b" opacity="1.00" d=" M 197.45 285.42 C 198.30 277.32 199.27 269.16 201.73 261.37 C 203.80 263.56 206.26 265.66 207.15 268.66 C 208.46 273.08 208.73 277.73 209.79 282.21 C 211.23 288.91 213.94 295.24 216.92 301.38 C 219.21 298.88 221.55 296.40 223.47 293.59 C 222.65 296.76 221.57 299.84 220.44 302.91 C 220.89 303.40 221.78 304.39 222.23 304.88 C 220.03 305.89 217.70 306.57 215.39 307.28 C 212.42 302.13 209.58 296.86 207.80 291.16 C 205.51 284.41 205.17 277.24 204.53 270.20 C 204.06 270.23 203.12 270.29 202.65 270.32 C 202.46 270.86 202.09 271.95 201.90 272.49 C 198.38 280.91 198.16 290.23 198.17 299.23 C 198.87 297.43 199.58 295.64 200.19 293.82 C 200.02 297.71 200.12 301.61 200.19 305.51 C 195.75 306.84 191.51 308.78 187.71 311.45 C 186.36 310.73 185.02 309.99 183.64 309.33 C 185.16 309.60 186.68 309.86 188.21 310.11 C 188.82 309.05 189.44 308.00 190.07 306.96 C 185.37 302.25 180.48 297.73 176.14 292.69 C 182.58 295.08 186.99 300.67 193.10 303.68 C 197.47 298.63 196.88 291.63 197.45 285.42 Z" />
</g>
<g id="#493232ff">
<path fill="#493232" opacity="1.00" d=" M 420.26 263.01 C 421.46 263.38 422.68 263.74 423.90 264.11 C 426.43 264.63 428.68 265.95 431.18 266.59 C 430.55 266.67 429.29 266.84 428.66 266.93 C 428.63 267.54 428.55 268.77 428.52 269.38 C 428.13 269.30 427.37 269.13 426.99 269.05 C 425.29 268.50 423.54 267.99 422.04 267.01 C 421.31 265.74 420.81 264.36 420.26 263.01 Z" />
</g>
<g id="#170404ff">
<path fill="#170404" opacity="1.00" d=" M 127.91 267.33 C 128.72 267.96 129.53 268.60 130.26 269.35 C 130.43 269.85 130.77 270.85 130.94 271.35 C 135.96 272.38 140.99 273.35 145.97 274.56 C 146.99 274.89 148.00 275.25 149.00 275.65 C 155.46 279.83 162.19 283.52 169.03 287.03 C 171.41 288.90 173.74 290.84 176.14 292.69 C 180.48 297.73 185.37 302.25 190.07 306.96 C 189.44 308.00 188.82 309.05 188.21 310.11 C 186.68 309.86 185.16 309.60 183.64 309.33 C 181.98 309.00 180.30 308.74 178.63 308.48 C 178.16 317.06 176.89 326.28 170.98 332.98 C 166.66 337.87 160.71 341.60 154.08 342.08 C 143.33 343.27 130.99 340.87 123.90 332.04 C 119.79 322.92 118.46 312.53 120.89 302.76 C 121.51 302.71 122.74 302.61 123.35 302.56 C 123.17 308.39 122.40 314.31 123.64 320.08 C 125.02 326.10 128.31 332.23 134.27 334.76 C 144.34 339.48 157.97 339.63 166.36 331.45 C 169.48 327.59 173.27 323.81 174.69 318.96 C 174.01 313.29 172.45 307.73 172.14 301.98 C 168.65 295.05 162.93 289.14 155.79 285.97 C 149.79 284.77 143.73 283.84 137.67 282.92 C 137.59 282.41 137.44 281.39 137.36 280.88 C 138.49 280.14 139.61 279.41 140.74 278.68 C 136.07 275.53 130.50 273.60 124.87 275.01 C 125.99 272.49 127.04 269.94 127.91 267.33 M 177.05 301.81 C 177.14 304.38 178.62 306.22 180.95 307.19 C 180.97 304.57 179.47 302.68 177.05 301.81 Z" />
</g>
<g id="#060706ff">
<path fill="#060706" opacity="1.00" d=" M 428.66 266.93 C 429.29 266.84 430.55 266.67 431.18 266.59 C 434.56 266.11 437.83 267.42 441.10 268.12 C 450.03 270.07 458.93 272.17 467.75 274.58 C 483.60 279.91 499.05 287.20 511.70 298.30 C 523.95 309.29 534.52 322.29 542.02 336.98 C 557.11 365.84 562.08 400.63 552.71 432.08 C 547.56 447.22 539.86 461.46 530.30 474.27 C 521.90 486.12 512.41 498.76 512.58 514.01 C 513.23 524.77 515.85 535.37 515.70 546.20 C 517.38 543.77 519.05 541.34 520.68 538.88 C 521.59 548.21 516.76 556.97 510.54 563.54 C 505.24 569.06 497.74 572.45 490.00 571.75 C 478.20 572.55 466.69 566.74 459.16 557.85 C 449.93 547.46 445.20 533.64 444.43 519.89 C 442.36 501.46 446.31 483.09 449.64 465.04 C 444.25 466.55 440.52 470.91 436.29 474.27 C 429.15 480.35 421.33 485.54 414.06 491.45 C 413.45 491.22 412.22 490.75 411.61 490.52 C 411.59 489.85 411.57 489.18 411.55 488.52 C 419.78 480.29 429.94 474.32 437.97 465.90 C 441.46 462.89 444.89 459.59 449.22 457.82 C 451.46 456.81 454.99 457.11 455.46 460.07 C 456.21 465.41 454.63 470.73 453.62 475.94 C 448.69 495.49 447.32 516.51 453.08 536.04 C 457.15 549.14 466.64 561.60 480.28 565.50 C 491.53 569.00 505.32 564.80 511.22 554.23 C 513.43 550.98 512.57 546.91 511.66 543.39 C 508.48 531.90 506.71 519.89 507.64 507.96 C 508.57 497.25 514.46 487.93 520.22 479.18 C 524.76 472.12 530.12 465.63 534.52 458.48 C 542.86 444.56 549.24 429.16 551.12 412.95 C 552.81 393.95 551.42 374.40 544.60 356.45 C 536.59 334.17 522.86 313.61 504.02 299.08 C 497.57 293.04 489.56 289.13 481.64 285.42 C 464.71 277.69 446.17 274.90 428.52 269.38 C 428.55 268.77 428.63 267.54 428.66 266.93 Z" />
</g>
<g id="#734849ff">
<path fill="#734849" opacity="1.00" d=" M 121.35 278.55 C 122.56 274.30 124.77 270.45 127.91 267.33 C 127.04 269.94 125.99 272.49 124.87 275.01 C 130.50 273.60 136.07 275.53 140.74 278.68 C 139.61 279.41 138.49 280.14 137.36 280.88 C 133.68 283.26 129.87 285.64 127.08 289.09 C 123.86 293.01 122.13 297.90 120.89 302.76 C 118.46 312.53 119.79 322.92 123.90 332.04 C 120.09 327.25 118.79 321.02 118.66 315.03 C 118.57 307.51 119.96 299.88 123.14 293.04 C 126.14 286.57 132.40 282.71 137.82 278.48 C 134.72 277.01 131.49 275.86 128.17 275.00 C 124.59 280.50 121.45 286.29 117.64 291.63 C 116.33 293.71 113.65 293.73 111.54 294.42 C 114.40 288.85 119.56 284.69 121.35 278.55 Z" />
</g>
<g id="#b6b4b5ff">
<path fill="#b6b4b5" opacity="1.00" d=" M 424.36 268.86 C 425.02 268.91 426.33 269.00 426.99 269.05 C 427.37 269.13 428.13 269.30 428.52 269.38 C 446.17 274.90 464.71 277.69 481.64 285.42 C 489.56 289.13 497.57 293.04 504.02 299.08 C 497.49 295.63 491.44 291.32 484.73 288.20 C 472.84 282.41 460.10 278.52 447.20 275.71 C 439.77 274.05 432.59 271.46 425.14 269.89 C 425.28 287.27 426.16 304.63 426.37 322.01 C 426.45 334.26 425.60 346.49 424.79 358.70 C 423.27 371.79 422.03 384.98 422.69 398.17 C 423.16 407.45 421.91 416.69 421.85 425.97 C 421.82 433.74 419.89 441.30 418.94 448.97 C 417.92 457.44 415.56 465.65 413.85 473.98 C 413.06 476.88 412.39 479.81 411.72 482.74 C 412.27 483.13 413.39 483.92 413.95 484.31 C 412.64 485.12 411.30 485.85 409.97 486.60 C 410.73 478.55 413.41 470.89 414.90 462.98 C 416.58 454.21 418.36 445.39 418.40 436.42 C 418.40 427.80 419.11 419.17 418.49 410.55 C 420.28 390.06 422.69 369.62 423.53 349.06 C 423.81 336.67 425.58 324.20 423.78 311.85 C 426.25 305.21 425.37 298.00 424.86 291.10 C 424.20 283.71 424.12 276.28 424.36 268.86 Z" />
</g>
<g id="#642123ff">
<path fill="#642123" opacity="1.00" d=" M 80.45 270.09 C 81.44 270.35 82.43 270.61 83.42 270.86 C 82.83 276.58 81.64 283.48 85.77 288.19 C 91.22 292.09 98.30 291.55 104.64 292.25 C 103.51 294.87 100.32 294.35 98.01 294.47 C 91.61 294.50 83.65 292.85 80.87 286.32 C 79.63 281.01 80.42 275.48 80.45 270.09 Z" />
</g>
<g id="#e7a4a5ff">
<path fill="#e7a4a5" opacity="1.00" d=" M 309.27 274.94 C 316.70 273.33 324.32 274.71 331.84 274.34 C 331.81 275.52 331.78 276.69 331.75 277.87 C 324.38 279.27 316.84 278.68 309.49 277.49 C 309.43 276.85 309.32 275.58 309.27 274.94 Z" />
</g>
<g id="#49070fff">
<path fill="#49070f" opacity="1.00" d=" M 127.08 289.09 C 129.87 285.64 133.68 283.26 137.36 280.88 C 137.44 281.39 137.59 282.41 137.67 282.92 C 143.73 283.84 149.79 284.77 155.79 285.97 C 154.80 286.43 153.80 286.90 152.81 287.38 C 153.49 290.63 153.86 294.21 156.14 296.81 C 160.05 301.57 165.77 304.40 171.77 305.45 C 171.86 304.59 172.04 302.85 172.14 301.98 C 172.45 307.73 174.01 313.29 174.69 318.96 C 173.27 323.81 169.48 327.59 166.36 331.45 C 158.84 328.41 150.71 327.12 143.38 323.58 C 136.40 320.69 130.61 315.73 124.22 311.82 C 123.98 314.57 123.71 317.31 123.64 320.08 C 122.40 314.31 123.17 308.39 123.35 302.56 C 122.74 302.61 121.51 302.71 120.89 302.76 C 122.13 297.90 123.86 293.01 127.08 289.09 M 134.53 289.68 C 130.74 291.50 129.58 296.15 129.99 300.02 C 130.23 302.72 130.68 306.62 134.05 307.03 C 138.61 308.60 143.04 306.32 146.64 303.67 C 146.56 299.85 147.60 295.36 144.70 292.28 C 142.45 289.05 138.03 288.59 134.53 289.68 Z" />
</g>
<g id="#dfd9ceff">
<path fill="#dfd9ce" opacity="1.00" d=" M 303.92 286.67 C 304.58 285.10 305.24 283.54 305.94 281.99 C 305.55 286.50 305.28 291.04 304.09 295.42 C 302.91 295.04 301.73 294.64 300.56 294.24 C 301.68 291.71 302.87 289.22 303.92 286.67 Z" />
</g>
<g id="#28090dff">
<path fill="#28090d" opacity="1.00" d=" M 306.83 283.54 C 313.20 284.48 319.63 283.48 326.01 283.94 C 328.64 283.97 331.62 286.87 329.47 289.35 C 322.07 291.20 314.31 290.16 306.76 290.13 C 306.78 287.93 306.81 285.74 306.83 283.54 Z" />
</g>
<g id="#9f545bff">
<path fill="#9f545b" opacity="1.00" d=" M 152.81 287.38 C 153.80 286.90 154.80 286.43 155.79 285.97 C 162.93 289.14 168.65 295.05 172.14 301.98 C 172.04 302.85 171.86 304.59 171.77 305.45 C 165.77 304.40 160.05 301.57 156.14 296.81 C 153.86 294.21 153.49 290.63 152.81 287.38 Z" />
</g>
<g id="#050303ff">
<path fill="#050303" opacity="1.00" d=" M 270.31 289.26 C 274.43 288.46 278.63 289.01 282.63 290.11 C 287.87 291.57 293.52 291.47 298.53 293.74 C 301.54 295.09 304.71 296.01 307.90 296.80 C 307.20 298.51 306.50 300.23 305.81 301.95 C 304.83 301.58 303.85 301.21 302.87 300.85 C 296.76 298.60 290.60 295.36 283.87 296.51 C 287.26 298.20 291.02 299.55 293.64 302.42 C 295.65 304.51 296.69 307.27 297.70 309.94 C 298.31 314.16 298.94 318.38 299.87 322.54 C 299.49 322.38 298.74 322.06 298.36 321.89 C 297.28 320.17 296.22 318.42 294.88 316.90 C 285.72 317.50 277.41 321.93 268.82 324.76 C 263.12 326.89 256.85 327.36 251.45 330.30 C 248.81 331.75 245.95 332.73 243.05 333.48 C 241.38 325.60 242.54 317.52 244.88 309.92 C 247.02 305.82 250.02 302.25 252.52 298.38 C 246.99 298.92 241.44 301.23 235.87 299.63 C 238.06 298.23 240.28 296.84 242.72 295.91 C 251.64 292.67 260.94 290.65 270.31 289.26 M 253.43 303.47 C 248.03 305.85 245.63 313.04 248.99 318.04 C 251.43 323.28 258.60 323.76 263.19 321.29 C 269.38 317.74 268.92 307.74 263.29 303.85 C 260.28 302.37 256.51 302.00 253.43 303.47 Z" />
</g>
<g id="#a4787aff">
<path fill="#a4787a" opacity="1.00" d=" M 134.53 289.68 C 138.03 288.59 142.45 289.05 144.70 292.28 C 147.60 295.36 146.56 299.85 146.64 303.67 C 143.04 306.32 138.61 308.60 134.05 307.03 C 130.68 306.62 130.23 302.72 129.99 300.02 C 129.58 296.15 130.74 291.50 134.53 289.68 Z" />
</g>
<g id="#502e31ff">
<path fill="#502e31" opacity="1.00" d=" M 62.03 290.70 C 63.37 301.75 62.40 312.90 62.67 324.00 C 62.74 346.95 61.82 370.23 67.26 392.72 C 70.22 405.83 75.21 418.73 83.75 429.25 C 89.63 436.43 95.24 444.13 103.14 449.26 C 104.06 440.66 100.56 431.51 105.20 423.53 C 108.19 425.19 110.97 427.32 112.77 430.29 C 117.28 437.17 122.89 443.41 129.73 448.04 C 131.76 449.15 133.89 450.09 136.00 451.04 C 135.41 448.92 134.81 446.81 134.16 444.72 C 131.22 435.40 127.54 426.19 126.77 416.35 C 127.31 416.50 128.38 416.78 128.91 416.92 C 130.66 424.03 132.74 431.09 135.67 437.82 C 137.89 442.91 140.08 448.05 141.35 453.48 C 136.88 455.26 132.16 454.00 128.08 451.88 C 125.99 450.18 123.80 448.59 121.59 447.05 C 121.76 449.36 122.01 451.67 122.24 453.99 C 121.16 457.94 120.23 461.94 119.93 466.04 C 117.68 459.26 118.79 452.09 118.42 445.11 C 118.39 442.89 116.81 441.17 115.53 439.52 C 112.32 435.75 109.70 431.52 106.55 427.70 C 105.25 436.12 108.32 445.05 104.78 453.09 C 99.73 452.42 96.35 448.42 93.04 444.97 C 85.01 436.12 77.07 426.94 71.95 416.03 C 66.82 407.23 65.33 397.01 62.90 387.27 C 57.98 361.81 59.86 335.77 59.61 310.00 C 59.65 303.88 59.19 297.72 60.07 291.63 C 62.00 298.25 61.24 305.20 61.33 312.00 C 61.44 320.41 60.89 328.83 61.53 337.23 C 62.01 321.72 61.22 306.20 62.03 290.70 Z" />
</g>
<g id="#f9f9f6ff">
<path fill="#f9f9f6" opacity="1.00" d=" M 283.87 296.51 C 290.60 295.36 296.76 298.60 302.87 300.85 C 302.49 305.44 301.51 309.99 299.71 314.25 C 299.02 312.82 298.33 311.39 297.70 309.94 C 296.69 307.27 295.65 304.51 293.64 302.42 C 291.02 299.55 287.26 298.20 283.87 296.51 Z" />
</g>
<g id="#482638ff">
<path fill="#482638" opacity="1.00" d=" M 307.90 296.80 C 307.97 299.36 307.63 301.94 306.48 304.26 C 304.52 308.44 303.52 312.95 302.55 317.44 C 299.61 328.93 296.01 340.27 291.47 351.23 C 291.04 350.99 290.20 350.50 289.77 350.26 C 290.23 348.38 290.67 346.49 291.14 344.62 C 293.09 336.90 295.86 329.44 298.36 321.89 C 298.74 322.06 299.49 322.38 299.87 322.54 C 298.94 318.38 298.31 314.16 297.70 309.94 C 298.33 311.39 299.02 312.82 299.71 314.25 C 301.51 309.99 302.49 305.44 302.87 300.85 C 303.85 301.21 304.83 301.58 305.81 301.95 C 306.50 300.23 307.20 298.51 307.90 296.80 Z" />
</g>
<g id="#dcdbdcff">
<path fill="#dcdbdc" opacity="1.00" d=" M 177.05 301.81 C 179.47 302.68 180.97 304.57 180.95 307.19 C 178.62 306.22 177.14 304.38 177.05 301.81 Z" />
<path fill="#dcdbdc" opacity="1.00" d=" M 422.69 398.17 C 422.03 384.98 423.27 371.79 424.79 358.70 C 425.98 383.01 427.88 407.60 423.52 431.72 C 421.69 446.03 420.81 460.99 413.85 473.98 C 415.56 465.65 417.92 457.44 418.94 448.97 C 419.89 441.30 421.82 433.74 421.85 425.97 C 421.91 416.69 423.16 407.45 422.69 398.17 Z" />
</g>
<g id="#ded2cfff">
<path fill="#ded2cf" opacity="1.00" d=" M 253.43 303.47 C 256.51 302.00 260.28 302.37 263.29 303.85 C 268.92 307.74 269.38 317.74 263.19 321.29 C 258.60 323.76 251.43 323.28 248.99 318.04 C 245.63 313.04 248.03 305.85 253.43 303.47 Z" />
</g>
<g id="#5a5368ff">
<path fill="#5a5368" opacity="1.00" d=" M 242.00 333.05 C 240.13 325.34 240.82 316.85 244.88 309.92 C 242.54 317.52 241.38 325.60 243.05 333.48 C 245.95 332.73 248.81 331.75 251.45 330.30 C 256.85 327.36 263.12 326.89 268.82 324.76 C 277.41 321.93 285.72 317.50 294.88 316.90 C 296.22 318.42 297.28 320.17 298.36 321.89 C 295.86 329.44 293.09 336.90 291.14 344.62 C 287.01 346.85 283.03 350.06 278.07 349.87 C 272.11 349.88 266.25 351.15 260.72 353.35 C 259.78 352.96 258.85 352.54 257.95 352.09 C 250.67 347.90 244.15 341.39 242.00 333.05 Z" />
</g>
<g id="#ac1a25ff">
<path fill="#ac1a25" opacity="1.00" d=" M 124.22 311.82 C 130.61 315.73 136.40 320.69 143.38 323.58 C 150.71 327.12 158.84 328.41 166.36 331.45 C 157.97 339.63 144.34 339.48 134.27 334.76 C 128.31 332.23 125.02 326.10 123.64 320.08 C 123.71 317.31 123.98 314.57 124.22 311.82 Z" />
</g>
<g id="#0e0604ff">
<path fill="#0e0604" opacity="1.00" d=" M 423.78 311.85 C 425.58 324.20 423.81 336.67 423.53 349.06 C 422.69 369.62 420.28 390.06 418.49 410.55 C 417.10 415.86 416.12 421.27 415.76 426.76 C 414.90 432.74 413.88 438.74 411.76 444.43 C 410.11 435.58 410.76 426.55 411.78 417.68 C 413.52 406.03 415.14 394.31 415.09 382.51 C 415.73 378.23 416.10 373.92 416.30 369.61 C 416.77 369.87 417.24 370.14 417.71 370.41 C 418.77 359.61 420.80 348.88 420.71 338.00 C 420.67 330.79 421.22 323.60 421.69 316.41 C 422.36 314.87 423.10 313.37 423.78 311.85 Z" />
</g>
<g id="#653c3aff">
<path fill="#653c3a" opacity="1.00" d=" M 85.05 333.09 C 89.61 326.59 93.52 319.61 98.77 313.63 C 97.78 317.15 96.66 320.65 94.99 323.91 C 93.72 325.80 92.39 327.65 91.20 329.60 C 89.00 333.04 86.70 336.42 84.78 340.02 C 82.70 344.43 81.52 349.22 80.96 354.05 C 80.38 354.22 79.22 354.57 78.64 354.75 C 78.62 347.06 80.69 339.46 85.05 333.09 Z" />
</g>
<g id="#fde3ddff">
<path fill="#fde3dd" opacity="1.00" d=" M 84.78 340.02 C 86.70 336.42 89.00 333.04 91.20 329.60 C 90.85 331.26 90.59 332.94 90.32 334.62 C 96.56 334.19 102.75 333.15 109.01 333.02 C 115.15 332.78 119.81 337.37 124.95 340.01 C 129.29 342.17 132.64 345.70 135.60 349.47 C 138.28 352.95 142.82 354.15 145.79 357.28 C 148.33 362.61 148.43 368.84 147.65 374.60 C 146.91 378.20 146.05 382.54 142.48 384.40 C 136.00 387.89 128.78 389.78 121.51 390.74 C 121.58 392.24 121.65 393.74 121.72 395.25 C 113.71 392.42 106.63 387.69 99.18 383.72 C 93.73 379.18 89.56 373.37 84.96 368.03 C 81.28 362.14 80.87 354.95 82.85 348.40 C 85.71 348.21 88.57 348.01 91.42 347.78 C 91.39 346.45 91.42 345.11 91.22 343.79 C 89.33 342.14 86.97 341.18 84.78 340.02 Z" />
</g>
<g id="#bda9a5ff">
<path fill="#bda9a5" opacity="1.00" d=" M 80.96 354.05 C 81.52 349.22 82.70 344.43 84.78 340.02 C 86.97 341.18 89.33 342.14 91.22 343.79 C 91.42 345.11 91.39 346.45 91.42 347.78 C 88.57 348.01 85.71 348.21 82.85 348.40 C 80.87 354.95 81.28 362.14 84.96 368.03 C 81.12 364.41 80.20 359.09 80.96 354.05 Z" />
</g>
<g id="#918191ff">
<path fill="#918191" opacity="1.00" d=" M 278.07 349.87 C 283.03 350.06 287.01 346.85 291.14 344.62 C 290.67 346.49 290.23 348.38 289.77 350.26 L 289.13 349.82 C 289.09 349.18 289.01 347.89 288.97 347.24 C 284.83 349.84 280.67 352.77 275.76 353.63 C 271.55 354.36 267.24 354.29 263.00 353.91 C 262.43 353.77 261.29 353.49 260.72 353.35 C 266.25 351.15 272.11 349.88 278.07 349.87 Z" />
</g>
<g id="#d4bfc5ff">
<path fill="#d4bfc5" opacity="1.00" d=" M 275.76 353.63 C 280.67 352.77 284.83 349.84 288.97 347.24 C 289.01 347.89 289.09 349.18 289.13 349.82 C 288.34 352.10 287.36 354.30 286.38 356.50 L 285.99 355.87 C 285.93 355.31 285.79 354.18 285.73 353.62 C 278.21 354.57 270.49 355.78 263.00 353.91 C 267.24 354.29 271.55 354.36 275.76 353.63 Z" />
</g>
<g id="#a89a92ff">
<path fill="#a89a92" opacity="1.00" d=" M 169.24 350.18 C 170.95 349.95 171.34 351.82 172.00 352.98 C 173.77 356.80 174.92 360.86 176.15 364.88 C 174.19 361.42 172.34 357.90 170.18 354.57 C 170.22 358.00 170.31 361.46 170.91 364.86 C 167.99 360.67 167.16 354.88 169.24 350.18 Z" />
</g>
<g id="#b77078ff">
<path fill="#b77078" opacity="1.00" d=" M 289.13 349.82 L 289.77 350.26 C 290.20 350.50 291.04 350.99 291.47 351.23 C 295.10 353.20 299.28 354.72 301.79 358.20 C 304.40 362.02 304.62 366.82 305.44 371.24 C 304.15 372.66 302.96 374.18 301.77 375.69 C 303.14 375.51 304.52 375.32 305.91 375.14 C 303.99 376.93 302.00 378.66 299.85 380.17 C 299.46 380.06 298.69 379.83 298.30 379.72 C 300.49 374.33 304.01 368.11 300.55 362.43 C 297.92 357.05 291.47 357.18 286.38 356.50 C 287.36 354.30 288.34 352.10 289.13 349.82 Z" />
</g>
<g id="#fde1dbff">
<path fill="#fde1db" opacity="1.00" d=" M 257.01 351.63 C 257.25 351.75 257.71 351.98 257.95 352.09 C 258.85 352.54 259.78 352.96 260.72 353.35 C 261.29 353.49 262.43 353.77 263.00 353.91 C 270.49 355.78 278.21 354.57 285.73 353.62 C 285.79 354.18 285.93 355.31 285.99 355.87 C 285.22 358.06 284.30 360.20 283.38 362.34 C 281.74 365.80 279.84 369.13 277.90 372.43 C 274.72 377.91 270.53 382.68 266.93 387.86 C 264.74 391.04 262.17 393.94 259.15 396.36 C 258.35 393.99 257.23 391.63 257.21 389.09 C 257.69 386.53 259.17 384.33 260.38 382.08 C 257.81 380.20 255.08 378.45 252.91 376.09 C 250.71 373.68 250.72 370.12 251.03 367.07 C 251.58 363.02 255.49 360.79 257.45 357.48 C 257.76 355.52 257.25 353.56 257.01 351.63 Z" />
</g>
<g id="#120703ff">
<path fill="#120703" opacity="1.00" d=" M 170.18 354.57 C 172.34 357.90 174.19 361.42 176.15 364.88 C 178.36 368.40 181.22 373.00 185.97 372.71 C 189.63 373.07 193.23 371.38 195.53 368.55 C 198.48 365.35 198.82 360.83 200.10 356.87 C 201.56 356.42 203.08 356.26 204.58 356.07 C 205.88 359.79 206.59 363.84 208.86 367.13 C 211.17 370.30 216.09 370.36 218.96 367.94 C 221.78 365.66 224.20 362.69 227.87 361.75 C 227.58 363.75 227.60 365.90 226.63 367.74 C 222.59 371.49 217.18 375.20 211.40 373.49 C 208.20 371.72 206.25 368.36 203.06 366.56 C 199.60 368.88 197.24 372.43 193.93 374.93 C 190.86 377.25 186.81 377.38 183.11 377.47 C 177.17 375.62 173.31 370.32 170.91 364.86 C 170.31 361.46 170.22 358.00 170.18 354.57 Z" />
</g>
<g id="#d5979cff">
<path fill="#d5979c" opacity="1.00" d=" M 285.99 355.87 L 286.38 356.50 C 291.47 357.18 297.92 357.05 300.55 362.43 C 304.01 368.11 300.49 374.33 298.30 379.72 C 298.69 379.83 299.46 380.06 299.85 380.17 C 298.70 380.99 297.56 381.81 296.42 382.63 C 295.36 377.67 298.18 373.01 298.01 368.09 C 297.95 364.91 294.88 362.31 291.77 362.48 C 288.97 362.41 286.17 362.60 283.38 362.34 C 284.30 360.20 285.22 358.06 285.99 355.87 Z" />
</g>
<g id="#e5b0b3ff">
<path fill="#e5b0b3" opacity="1.00" d=" M 277.90 372.43 C 279.84 369.13 281.74 365.80 283.38 362.34 C 286.17 362.60 288.97 362.41 291.77 362.48 C 294.88 362.31 297.95 364.91 298.01 368.09 C 298.18 373.01 295.36 377.67 296.42 382.63 C 289.29 388.00 280.97 391.46 273.85 396.82 C 273.48 394.77 272.75 392.69 273.04 390.60 C 274.59 387.46 277.44 385.16 278.91 381.97 C 279.97 379.60 280.41 377.02 280.97 374.51 C 279.94 373.81 278.92 373.12 277.90 372.43 Z" />
</g>
<g id="#562a25ff">
<path fill="#562a25" opacity="1.00" d=" M 305.44 371.24 C 309.12 367.58 313.53 364.22 318.95 364.04 C 318.64 367.77 317.42 371.40 314.92 374.25 C 314.81 372.12 314.61 369.99 314.42 367.87 C 313.74 368.41 313.06 368.96 312.39 369.51 C 310.15 371.29 307.98 373.16 305.91 375.14 C 304.52 375.32 303.14 375.51 301.77 375.69 C 302.96 374.18 304.15 372.66 305.44 371.24 Z" />
</g>
<g id="#df9298ff">
<path fill="#df9298" opacity="1.00" d=" M 193.93 374.93 C 197.24 372.43 199.60 368.88 203.06 366.56 C 206.25 368.36 208.20 371.72 211.40 373.49 C 217.18 375.20 222.59 371.49 226.63 367.74 C 224.94 370.39 223.01 372.88 220.99 375.28 C 218.82 375.14 216.64 375.05 214.46 374.93 C 214.57 381.11 213.77 387.75 209.59 392.62 C 205.82 397.10 198.39 399.51 193.42 395.60 C 189.04 391.41 188.93 384.91 189.35 379.28 C 187.27 378.67 185.20 378.04 183.11 377.47 C 186.81 377.38 190.86 377.25 193.93 374.93 Z" />
</g>
<g id="#b88e8aff">
<path fill="#b88e8a" opacity="1.00" d=" M 312.39 369.51 C 313.06 368.96 313.74 368.41 314.42 367.87 C 314.61 369.99 314.81 372.12 314.92 374.25 C 314.94 376.73 314.77 379.21 314.94 381.69 C 313.00 383.33 311.07 385.00 308.94 386.39 C 307.97 387.00 307.00 387.62 306.04 388.24 C 307.94 381.91 312.91 376.43 312.39 369.51 Z" />
</g>
<g id="#fcebe4ff">
<path fill="#fcebe4" opacity="1.00" d=" M 305.91 375.14 C 307.98 373.16 310.15 371.29 312.39 369.51 C 312.91 376.43 307.94 381.91 306.04 388.24 C 297.40 397.26 285.80 403.18 273.68 405.89 C 265.77 407.82 257.85 409.86 249.72 410.56 C 254.04 407.74 258.58 405.27 263.24 403.05 C 266.95 401.28 270.50 399.20 273.85 396.82 C 280.97 391.46 289.29 388.00 296.42 382.63 C 297.56 381.81 298.70 380.99 299.85 380.17 C 302.00 378.66 303.99 376.93 305.91 375.14 Z" />
</g>
<g id="#caa3a1ff">
<path fill="#caa3a1" opacity="1.00" d=" M 266.93 387.86 C 270.53 382.68 274.72 377.91 277.90 372.43 C 278.92 373.12 279.94 373.81 280.97 374.51 C 280.41 377.02 279.97 379.60 278.91 381.97 C 277.44 385.16 274.59 387.46 273.04 390.60 C 272.75 392.69 273.48 394.77 273.85 396.82 C 270.50 399.20 266.95 401.28 263.24 403.05 C 261.29 401.29 259.32 399.57 257.33 397.87 C 257.94 397.37 258.55 396.86 259.15 396.36 C 262.17 393.94 264.74 391.04 266.93 387.86 Z" />
</g>
<g id="#935760ff">
<path fill="#935760" opacity="1.00" d=" M 308.94 386.39 C 311.07 385.00 313.00 383.33 314.94 381.69 C 315.20 382.89 315.53 384.07 315.86 385.26 C 313.58 389.37 310.32 392.76 306.98 396.01 C 302.82 400.01 301.83 405.98 298.50 410.53 C 296.26 413.60 293.81 416.52 291.77 419.73 C 287.42 426.91 280.26 431.87 276.32 439.36 C 278.58 439.95 280.90 441.01 283.28 440.49 C 286.82 439.72 289.94 437.80 293.14 436.19 C 297.86 433.70 303.06 432.17 307.48 429.13 C 307.50 431.70 307.42 434.43 305.90 436.63 C 303.76 436.05 301.47 435.33 299.30 436.21 C 289.89 439.35 280.86 444.73 270.63 444.45 C 274.05 436.73 280.54 431.08 284.98 424.02 C 288.25 419.00 291.06 413.62 295.25 409.26 C 301.02 403.15 304.02 395.04 309.86 388.97 C 309.63 388.32 309.17 387.03 308.94 386.39 Z" />
</g>
<g id="#9f7379ff">
<path fill="#9f7379" opacity="1.00" d=" M 411.71 391.76 C 412.04 388.43 413.51 385.40 415.09 382.51 C 415.14 394.31 413.52 406.03 411.78 417.68 C 411.28 418.90 410.74 420.11 410.26 421.34 C 408.70 411.47 410.62 401.57 411.71 391.76 Z" />
</g>
<g id="#493e3cff">
<path fill="#493e3c" opacity="1.00" d=" M 97.01 384.15 C 97.55 384.04 98.64 383.83 99.18 383.72 C 106.63 387.69 113.71 392.42 121.72 395.25 C 138.56 401.55 156.40 404.71 174.07 407.76 C 195.53 411.27 217.33 413.45 239.08 412.20 C 241.49 412.16 243.70 411.09 245.13 409.15 C 248.70 404.87 252.99 401.32 257.33 397.87 C 259.32 399.57 261.29 401.29 263.24 403.05 C 258.58 405.27 254.04 407.74 249.72 410.56 C 257.85 409.86 265.77 407.82 273.68 405.89 C 285.80 403.18 297.40 397.26 306.04 388.24 C 307.00 387.62 307.97 387.00 308.94 386.39 C 309.17 387.03 309.63 388.32 309.86 388.97 C 304.02 395.04 301.02 403.15 295.25 409.26 C 291.06 413.62 288.25 419.00 284.98 424.02 C 280.54 431.08 274.05 436.73 270.63 444.45 C 280.86 444.73 289.89 439.35 299.30 436.21 C 301.47 435.33 303.76 436.05 305.90 436.63 C 304.97 437.81 304.01 438.96 303.00 440.08 C 300.91 441.63 298.84 443.21 296.74 444.74 C 295.11 445.84 293.52 447.01 291.93 448.16 C 291.16 448.09 289.64 447.96 288.87 447.90 C 291.22 445.59 293.57 443.29 295.89 440.95 C 286.87 443.94 277.88 447.31 268.28 447.81 C 265.71 441.73 271.46 437.08 274.67 432.67 C 282.16 422.88 290.33 413.13 294.60 401.41 C 290.05 402.80 285.68 404.70 281.30 406.53 C 273.57 409.75 265.31 411.36 257.15 413.02 C 244.14 414.24 231.08 415.64 217.99 414.82 C 205.88 414.71 193.89 412.93 181.83 411.99 C 165.21 408.99 148.46 406.37 132.19 401.76 C 119.65 397.97 106.69 393.30 97.01 384.15 Z" />
</g>
<g id="#713f43ff">
<path fill="#713f43" opacity="1.00" d=" M 334.97 388.67 C 336.41 388.55 337.85 388.44 339.30 388.32 C 337.60 391.48 336.48 394.92 335.87 398.45 C 335.53 399.97 335.26 401.50 334.95 403.04 C 333.66 404.58 332.23 406.00 330.81 407.42 C 330.51 403.87 330.61 400.24 331.86 396.86 C 332.83 394.10 333.92 391.40 334.97 388.67 Z" />
</g>
<g id="#92565fff">
<path fill="#92565f" opacity="1.00" d=" M 321.74 408.89 C 323.30 403.57 327.50 399.94 331.86 396.86 C 330.61 400.24 330.51 403.87 330.81 407.42 C 332.23 406.00 333.66 404.58 334.95 403.04 C 332.39 420.94 327.88 438.48 323.93 456.11 C 321.36 464.14 319.72 472.47 316.54 480.31 C 313.58 487.96 311.24 495.83 308.60 503.59 C 306.09 511.08 302.03 517.93 299.56 525.45 C 297.75 530.98 295.67 536.50 292.30 541.30 C 289.14 545.65 286.16 550.40 286.08 555.98 C 289.87 554.98 293.63 553.81 297.10 551.97 C 294.56 554.72 291.90 557.34 289.01 559.71 C 287.18 558.58 285.34 557.47 283.58 556.25 C 283.10 555.83 282.14 554.98 281.66 554.56 C 285.78 544.93 290.90 535.78 295.20 526.24 C 298.71 518.41 302.89 510.87 305.60 502.71 C 309.72 490.65 314.33 478.72 317.21 466.29 C 322.22 450.52 325.55 434.27 329.24 418.15 C 329.89 414.96 330.48 411.76 330.98 408.55 C 329.81 408.50 328.66 408.47 327.50 408.43 C 327.88 406.10 328.17 403.75 328.61 401.43 C 326.19 403.79 323.77 406.18 321.74 408.89 Z" />
</g>
<g id="#a0918cff">
<path fill="#a0918c" opacity="1.00" d=" M 321.74 408.89 C 323.77 406.18 326.19 403.79 328.61 401.43 C 328.17 403.75 327.88 406.10 327.50 408.43 C 328.66 408.47 329.81 408.50 330.98 408.55 C 330.48 411.76 329.89 414.96 329.24 418.15 C 329.24 415.99 329.11 413.84 328.99 411.70 C 322.51 417.58 319.43 426.11 313.25 432.24 C 310.28 435.40 306.56 437.67 303.00 440.08 C 304.01 438.96 304.97 437.81 305.90 436.63 C 307.42 434.43 307.50 431.70 307.48 429.13 C 312.26 422.40 318.08 416.35 321.74 408.89 Z" />
</g>
<g id="#867c7cff">
<path fill="#867c7c" opacity="1.00" d=" M 415.76 426.76 C 416.12 421.27 417.10 415.86 418.49 410.55 C 419.11 419.17 418.40 427.80 418.40 436.42 C 418.36 445.39 416.58 454.21 414.90 462.98 C 413.41 470.89 410.73 478.55 409.97 486.60 C 411.30 485.85 412.64 485.12 413.95 484.31 C 421.80 477.98 429.55 471.48 437.97 465.90 C 429.94 474.32 419.78 480.29 411.55 488.52 C 410.45 487.92 409.36 487.33 408.27 486.75 C 409.13 482.75 410.21 478.81 410.97 474.80 C 412.06 469.41 410.62 463.93 411.29 458.51 C 412.54 447.89 415.66 437.52 415.76 426.76 Z" />
</g>
<g id="#bab8b7ff">
<path fill="#bab8b7" opacity="1.00" d=" M 181.83 411.99 C 193.89 412.93 205.88 414.71 217.99 414.82 C 231.08 415.64 244.14 414.24 257.15 413.02 C 250.25 414.75 243.16 415.57 236.06 415.69 C 217.94 416.13 199.60 415.86 181.83 411.99 Z" />
</g>
<g id="#dfdcd9ff">
<path fill="#dfdcd9" opacity="1.00" d=" M 313.25 432.24 C 319.43 426.11 322.51 417.58 328.99 411.70 C 329.11 413.84 329.24 415.99 329.24 418.15 C 325.55 434.27 322.22 450.52 317.21 466.29 C 318.57 454.30 322.98 442.95 324.84 431.05 C 319.66 433.16 314.95 436.21 310.55 439.63 C 306.57 442.73 301.50 443.56 296.74 444.74 C 298.84 443.21 300.91 441.63 303.00 440.08 C 306.56 437.67 310.28 435.40 313.25 432.24 Z" />
</g>
<g id="#5a4241ff">
<path fill="#5a4241" opacity="1.00" d=" M 410.26 421.34 C 410.74 420.11 411.28 418.90 411.78 417.68 C 410.76 426.55 410.11 435.58 411.76 444.43 C 413.88 438.74 414.90 432.74 415.76 426.76 C 415.66 437.52 412.54 447.89 411.29 458.51 C 410.62 463.93 412.06 469.41 410.97 474.80 C 410.21 478.81 409.13 482.75 408.27 486.75 C 409.36 487.33 410.45 487.92 411.55 488.52 C 411.57 489.18 411.59 489.85 411.61 490.52 C 412.22 490.75 413.45 491.22 414.06 491.45 C 412.89 492.18 411.71 492.90 410.52 493.60 L 409.58 493.32 C 404.83 491.33 400.90 496.06 397.00 498.03 C 401.85 488.67 404.11 478.17 405.76 467.83 C 406.86 461.79 409.39 456.06 409.86 449.90 C 410.65 440.40 410.22 430.86 410.26 421.34 Z" />
</g>
<g id="#9f9799ff">
<path fill="#9f9799" opacity="1.00" d=" M 268.28 447.81 C 277.88 447.31 286.87 443.94 295.89 440.95 C 293.57 443.29 291.22 445.59 288.87 447.90 C 289.64 447.96 291.16 448.09 291.93 448.16 C 288.71 450.68 284.88 452.22 280.93 453.14 C 283.83 449.99 287.00 447.11 290.14 444.21 C 283.03 446.30 275.80 448.69 268.28 447.81 Z" />
</g>
<g id="#cbb9b9ff">
<path fill="#cbb9b9" opacity="1.00" d=" M 129.73 448.04 C 131.21 446.93 132.68 445.82 134.16 444.72 C 134.81 446.81 135.41 448.92 136.00 451.04 C 133.89 450.09 131.76 449.15 129.73 448.04 Z" />
</g>
<g id="#d8d7d5ff">
<path fill="#d8d7d5" opacity="1.00" d=" M 128.08 451.88 C 132.16 454.00 136.88 455.26 141.35 453.48 C 142.58 453.34 144.45 452.38 145.27 453.80 C 146.02 456.06 145.83 458.50 145.98 460.85 C 142.90 460.85 139.68 461.33 136.72 460.26 C 132.91 458.60 130.66 454.93 128.08 451.88 Z" />
</g>
<g id="#070606ff">
<path fill="#070606" opacity="1.00" d=" M 122.24 453.99 C 126.02 474.81 132.97 495.16 143.31 513.67 C 146.86 520.70 151.34 527.47 157.71 532.26 C 162.91 536.42 169.98 538.67 176.54 536.79 C 184.28 534.96 190.08 527.84 191.15 520.08 C 193.15 506.29 188.35 492.88 185.17 479.67 C 184.16 475.91 184.61 472.00 185.36 468.25 C 188.60 468.32 192.11 468.07 194.92 470.02 C 204.40 476.19 213.30 483.34 223.42 488.50 C 231.35 492.69 240.34 495.68 246.57 502.42 C 253.78 510.79 254.48 522.35 258.82 532.13 C 263.53 542.91 269.44 553.46 277.91 561.74 C 279.20 559.37 280.49 556.99 281.66 554.56 C 282.14 554.98 283.10 555.83 283.58 556.25 C 285.54 558.29 287.35 560.48 289.16 562.65 C 287.02 564.11 284.88 565.58 282.74 567.05 C 288.90 573.64 296.56 578.68 304.79 582.28 C 311.05 585.02 318.20 585.42 324.86 584.14 C 331.89 582.25 335.54 575.12 337.83 568.78 C 339.09 564.66 341.13 559.54 337.72 555.91 C 338.20 556.14 338.69 556.39 339.19 556.63 C 339.65 557.53 340.11 558.43 340.57 559.35 C 341.31 559.56 342.05 559.79 342.80 560.01 C 342.65 563.74 342.62 567.47 342.37 571.20 C 341.93 572.78 341.44 574.35 340.90 575.90 C 337.65 582.66 331.64 588.63 324.06 590.07 C 314.08 591.89 303.89 588.74 295.32 583.68 C 280.59 574.80 268.61 561.81 260.05 546.96 C 254.35 537.40 250.98 526.73 247.84 516.13 C 246.08 509.83 241.95 504.14 236.24 500.88 C 232.77 498.88 229.08 497.30 225.47 495.55 C 217.10 491.59 209.21 486.67 201.65 481.34 C 198.00 478.60 194.35 475.82 190.22 473.84 C 190.18 481.13 193.34 487.84 194.80 494.87 C 196.93 504.87 198.66 515.53 195.24 525.47 C 192.61 533.28 186.33 540.28 178.06 542.08 C 171.76 543.23 164.91 542.90 159.23 539.68 C 150.17 534.70 143.85 526.03 138.89 517.19 C 130.44 501.06 122.68 484.19 119.93 466.04 C 120.23 461.94 121.16 457.94 122.24 453.99 Z" />
</g>
<g id="#070404ff">
<path fill="#070404" opacity="1.00" d=" M 397.00 498.03 C 400.90 496.06 404.83 491.33 409.58 493.32 C 406.34 496.56 404.83 500.93 404.43 505.41 C 403.90 505.00 403.37 504.59 402.85 504.19 C 402.69 506.07 402.58 507.96 402.49 509.86 C 402.24 508.97 402.00 508.10 401.76 507.23 C 399.44 513.66 397.81 520.36 394.71 526.48 C 388.40 539.63 381.09 552.46 371.74 563.70 C 367.46 569.17 361.24 572.54 356.31 577.35 C 353.55 580.05 348.15 582.68 345.36 578.68 C 345.06 568.91 349.19 559.91 351.67 550.68 C 352.58 547.65 352.63 544.46 352.23 541.34 C 353.26 541.75 353.99 542.58 354.66 543.44 C 355.20 542.69 355.74 541.94 356.30 541.21 C 355.50 547.26 353.97 553.19 352.91 559.20 C 352.22 562.58 351.94 566.02 351.72 569.47 C 354.87 567.44 357.86 565.11 360.23 562.17 C 364.73 556.66 369.41 551.26 373.46 545.39 C 377.53 539.55 380.51 533.04 383.48 526.60 C 386.51 519.47 390.10 512.55 392.23 505.07 C 392.96 502.23 394.89 499.97 397.00 498.03 Z" />
</g>
<g id="#4d2727ff">
<path fill="#4d2727" opacity="1.00" d=" M 317.40 531.39 C 320.26 527.74 323.71 524.58 327.82 522.40 C 327.87 522.89 327.97 523.88 328.02 524.38 C 315.37 537.40 304.17 552.16 289.16 562.65 C 287.35 560.48 285.54 558.29 283.58 556.25 C 285.34 557.47 287.18 558.58 289.01 559.71 C 291.90 557.34 294.56 554.72 297.10 551.97 C 303.84 545.08 311.29 538.88 317.40 531.39 Z" />
</g>
<g id="#fefdfbff">
<path fill="#fefdfb" opacity="1.00" d=" M 289.16 562.65 C 304.17 552.16 315.37 537.40 328.02 524.38 C 328.45 527.98 328.72 531.60 328.94 535.22 C 328.43 535.11 327.92 535.01 327.42 534.91 C 325.32 543.03 321.95 550.76 319.81 558.87 C 319.62 561.42 319.65 563.97 319.71 566.53 C 327.55 567.32 332.55 560.58 337.72 555.91 C 341.13 559.54 339.09 564.66 337.83 568.78 C 335.54 575.12 331.89 582.25 324.86 584.14 C 318.20 585.42 311.05 585.02 304.79 582.28 C 296.56 578.68 288.90 573.64 282.74 567.05 C 284.88 565.58 287.02 564.11 289.16 562.65 Z" />
</g>
<g id="#220807ff">
<path fill="#220807" opacity="1.00" d=" M 352.62 535.68 C 354.21 535.42 356.78 534.27 357.41 536.51 C 358.85 544.33 355.60 552.00 352.91 559.20 C 353.97 553.19 355.50 547.26 356.30 541.21 C 355.74 541.94 355.20 542.69 354.66 543.44 C 353.99 542.58 353.26 541.75 352.23 541.34 C 349.15 544.22 345.70 547.51 345.47 552.02 C 344.83 558.47 344.60 565.04 342.37 571.20 C 342.62 567.47 342.65 563.74 342.80 560.01 C 342.05 559.79 341.31 559.56 340.57 559.35 C 340.11 558.43 339.65 557.53 339.19 556.63 C 338.69 556.39 338.20 556.14 337.72 555.91 C 332.55 560.58 327.55 567.32 319.71 566.53 C 319.65 563.97 319.62 561.42 319.81 558.87 C 320.51 558.38 321.22 557.89 321.92 557.40 C 323.90 558.80 325.92 560.15 327.92 561.53 C 332.97 556.72 338.15 552.01 342.74 546.76 C 346.03 543.10 347.44 537.23 352.62 535.68 Z" />
</g>
<g id="#e3dddeff">
<path fill="#e3ddde" opacity="1.00" d=" M 345.47 552.02 C 345.70 547.51 349.15 544.22 352.23 541.34 C 352.63 544.46 352.58 547.65 351.67 550.68 C 349.19 559.91 345.06 568.91 345.36 578.68 C 345.02 578.94 344.32 579.45 343.98 579.71 C 343.87 577.55 343.81 575.40 343.79 573.24 C 342.75 574.40 341.69 575.56 340.62 576.71 L 340.90 575.90 C 341.44 574.35 341.93 572.78 342.37 571.20 C 344.60 565.04 344.83 558.47 345.47 552.02 Z" />
</g>
</svg>
